<svg width="1474" height="402" viewBox="0 0 1474 402" fill="none" xmlns="http://www.w3.org/2000/svg">
<g clip-path="url(#clip0_1524_128)">
<rect width="1474" height="402" fill="white"/>
<path d="M112.855 24.73V49.92C112.855 56.08 109.225 60.205 102.35 60.205C95.475 60.205 91.845 56.08 91.845 49.92V24.73H86.895V49.975C86.895 59.27 92.285 64.715 102.35 64.715C112.415 64.715 117.805 59.27 117.805 49.975V24.73H112.855ZM134.923 46.73C132.118 46.29 130.743 45.465 130.743 43.32C130.743 40.955 133.163 39.635 136.738 39.635C140.203 39.635 142.843 40.845 143.228 43.485H147.903C147.298 38.645 143.503 35.565 136.958 35.565C129.478 35.565 126.013 39.14 126.013 43.76C126.013 47.94 128.708 50.03 132.668 50.745L138.883 51.79C142.403 52.395 143.943 53.715 143.943 56.135C143.943 59.16 141.193 60.645 137.013 60.645C132.833 60.645 130.083 59.105 129.643 55.97H124.913C125.518 61.25 129.368 64.715 137.233 64.715C144.713 64.715 148.618 60.59 148.618 56.025C148.618 50.965 145.538 48.49 140.698 47.665L137.563 47.17L134.923 46.73ZM179.51 48.49C179.345 41.67 175.385 35.565 167.135 35.565C158.72 35.565 153.77 41.34 153.77 49.865C153.77 58.39 158.61 64.715 167.245 64.715C174.12 64.715 178.135 61.085 179.015 56.355H174.285C173.46 58.995 171.15 60.645 167.245 60.645C161.525 60.645 158.555 56.685 158.39 50.085H179.51V48.49ZM167.025 39.635C171.7 39.635 174.395 42.66 174.67 46.18H158.665C159.27 42.66 162.02 39.635 167.025 39.635ZM202.628 36.28H200.538C196.523 36.28 193.883 37.875 192.508 39.58H191.298V36.28H186.788V64H191.463V50.14C191.463 44.035 194.818 40.68 200.318 40.68H202.628V36.28Z" fill="#274867"/>
<path d="M623.005 24.73V64H637.69C649.735 64 655.84 56.135 655.84 44.365C655.84 32.54 649.735 24.73 637.69 24.73H623.005ZM627.955 59.49V29.24H637.69C647.205 29.24 650.835 36.17 650.835 44.365C650.835 52.56 647.205 59.49 637.69 59.49H627.955ZM689.234 42.66C692.094 41.12 693.524 38.205 693.524 34.685C693.524 29.295 689.289 24.73 680.984 24.73H663.879V64H681.424C690.389 64 694.734 59.215 694.734 52.945C694.734 48.93 692.534 45.41 689.234 43.87V42.66ZM668.829 29.13H680.764C684.724 29.13 688.519 30.67 688.519 35.125C688.519 39.965 685.219 41.395 680.874 41.395H668.829V29.13ZM668.829 59.6V45.74H681.149C685.769 45.74 689.729 47.5 689.729 52.56C689.729 58.005 685.549 59.6 681.094 59.6H668.829ZM702.443 64H707.283V30.34H708.493L718.558 48.985H723.728L733.793 30.34H735.003V64H739.843V24.73H731.538L721.803 43.155H720.593L710.693 24.73H702.443V64ZM760.87 40.515C757.57 39.8 754.215 38.59 754.215 34.795C754.215 30.67 758.175 28.525 762.905 28.525C768.625 28.525 771.32 30.67 772.255 34.63H777.26C776.38 28.305 771.155 24.015 763.015 24.015C754.16 24.015 749.21 28.8 749.21 34.905C749.21 40.625 753.005 43.705 758.725 44.86C760.65 45.3 764.5 46.015 766.48 46.455C770.33 47.335 773.135 48.93 773.135 53.165C773.135 57.675 768.955 60.205 763.51 60.205C758.12 60.205 753.39 58.39 752.51 53.055H747.505C748.11 59.875 754.105 64.715 763.29 64.715C773.245 64.715 778.14 59.215 778.14 53.055C778.14 46.345 774.18 43.32 768.295 42C766.26 41.56 762.575 40.79 760.87 40.515Z" fill="#274867"/>
<path d="M1162.01 24.73V64H1176.69C1188.74 64 1194.84 56.135 1194.84 44.365C1194.84 32.54 1188.74 24.73 1176.69 24.73H1162.01ZM1166.96 59.49V29.24H1176.69C1186.21 29.24 1189.84 36.17 1189.84 44.365C1189.84 52.56 1186.21 59.49 1176.69 59.49H1166.96ZM1220.04 64H1224.44V45.135C1224.44 38.92 1219.98 35.565 1213 35.565C1206.78 35.565 1202.38 38.535 1202 43.65H1206.67C1206.89 41.23 1208.98 39.635 1213.11 39.635C1217.95 39.635 1219.87 42.055 1219.87 45.41V46.51H1210.85C1203.15 46.51 1200.24 51.24 1200.24 55.695C1200.24 60.425 1203.81 64.715 1210.19 64.715C1214.15 64.715 1217.12 63.23 1218.83 61.085H1220.04V64ZM1211.35 60.645C1207.22 60.645 1204.91 58.665 1204.91 55.53C1204.91 52.23 1207 50.25 1211.57 50.25H1219.87V52.78C1219.87 57.18 1215.97 60.645 1211.35 60.645ZM1239.43 36.28V27.92H1234.76V36.28H1229.97V40.35H1234.76V56.245C1234.76 62.13 1238.28 64 1244.27 64H1246.42V59.82H1244.38C1240.64 59.82 1239.43 58.39 1239.43 55.585V40.35H1246.42V36.28H1239.43ZM1271.76 64H1276.16V45.135C1276.16 38.92 1271.71 35.565 1264.72 35.565C1258.51 35.565 1254.11 38.535 1253.72 43.65H1258.4C1258.62 41.23 1260.71 39.635 1264.83 39.635C1269.67 39.635 1271.6 42.055 1271.6 45.41V46.51H1262.58C1254.88 46.51 1251.96 51.24 1251.96 55.695C1251.96 60.425 1255.54 64.715 1261.92 64.715C1265.88 64.715 1268.85 63.23 1270.55 61.085H1271.76V64ZM1263.07 60.645C1258.95 60.645 1256.64 58.665 1256.64 55.53C1256.64 52.23 1258.73 50.25 1263.29 50.25H1271.6V52.78C1271.6 57.18 1267.69 60.645 1263.07 60.645ZM1299.08 35.565C1294.68 35.565 1292.09 37.27 1290.61 39.25H1289.4V24.015H1284.72V64H1289.23V61.03H1290.44C1291.98 62.955 1294.68 64.715 1299.08 64.715C1306.72 64.715 1311.23 58.335 1311.23 50.14C1311.23 41.78 1306.72 35.565 1299.08 35.565ZM1298.03 60.645C1291.87 60.645 1289.34 55.585 1289.34 50.14C1289.34 44.695 1291.87 39.635 1298.03 39.635C1303.59 39.635 1306.56 43.98 1306.56 50.14C1306.56 56.3 1303.59 60.645 1298.03 60.645ZM1336.22 64H1340.62V45.135C1340.62 38.92 1336.16 35.565 1329.18 35.565C1322.96 35.565 1318.56 38.535 1318.18 43.65H1322.85C1323.07 41.23 1325.16 39.635 1329.29 39.635C1334.13 39.635 1336.05 42.055 1336.05 45.41V46.51H1327.03C1319.33 46.51 1316.42 51.24 1316.42 55.695C1316.42 60.425 1319.99 64.715 1326.37 64.715C1330.33 64.715 1333.3 63.23 1335.01 61.085H1336.22V64ZM1327.53 60.645C1323.4 60.645 1321.09 58.665 1321.09 55.53C1321.09 52.23 1323.18 50.25 1327.75 50.25H1336.05V52.78C1336.05 57.18 1332.15 60.645 1327.53 60.645ZM1356.88 46.73C1354.07 46.29 1352.7 45.465 1352.7 43.32C1352.7 40.955 1355.12 39.635 1358.69 39.635C1362.16 39.635 1364.8 40.845 1365.18 43.485H1369.86C1369.25 38.645 1365.46 35.565 1358.91 35.565C1351.43 35.565 1347.97 39.14 1347.97 43.76C1347.97 47.94 1350.66 50.03 1354.62 50.745L1360.84 51.79C1364.36 52.395 1365.9 53.715 1365.9 56.135C1365.9 59.16 1363.15 60.645 1358.97 60.645C1354.79 60.645 1352.04 59.105 1351.6 55.97H1346.87C1347.47 61.25 1351.32 64.715 1359.19 64.715C1366.67 64.715 1370.57 60.59 1370.57 56.025C1370.57 50.965 1367.49 48.49 1362.65 47.665L1359.52 47.17L1356.88 46.73ZM1401.46 48.49C1401.3 41.67 1397.34 35.565 1389.09 35.565C1380.67 35.565 1375.72 41.34 1375.72 49.865C1375.72 58.39 1380.56 64.715 1389.2 64.715C1396.07 64.715 1400.09 61.085 1400.97 56.355H1396.24C1395.41 58.995 1393.1 60.645 1389.2 60.645C1383.48 60.645 1380.51 56.685 1380.34 50.085H1401.46V48.49ZM1388.98 39.635C1393.65 39.635 1396.35 42.66 1396.62 46.18H1380.62C1381.22 42.66 1383.97 39.635 1388.98 39.635Z" fill="#274867"/>
<circle cx="143.5" cy="251.5" r="123.5" stroke="#007BFF" stroke-width="4"/>
<circle cx="116" cy="230" r="11" stroke="#007BFF" stroke-width="4"/>
<circle cx="171" cy="230" r="11" stroke="#007BFF" stroke-width="4"/>
<path d="M91 281C91 281 111 309.5 144 309.5C177 309.5 197 281 197 281" stroke="#007BFF" stroke-width="4" stroke-linecap="round"/>
<path d="M472 214L349.652 214" stroke="#007BFF" stroke-width="4"/>
<path d="M357 213.597L357 201L328 213.586L357 226L357 213.597Z" fill="#007BFF" stroke="#007BFF" stroke-width="2"/>
<path d="M328 290L450.348 290" stroke="#007BFF" stroke-width="4"/>
<path d="M443 289.597L443 277L472 289.586L443 302L443 289.597Z" fill="#007BFF" stroke="#007BFF" stroke-width="2"/>
<path d="M1062 214L939.652 214" stroke="#007BFF" stroke-width="4"/>
<path d="M947 213.597L947 201L918 213.586L947 226L947 213.597Z" fill="#007BFF" stroke="#007BFF" stroke-width="2"/>
<path d="M918 290L1040.35 290" stroke="#007BFF" stroke-width="4"/>
<path d="M1033 289.597L1033 277L1062 289.586L1033 302L1033 289.597Z" fill="#007BFF" stroke="#007BFF" stroke-width="2"/>
<mask id="path-16-inside-1_1524_128" fill="white">
<path fill-rule="evenodd" clip-rule="evenodd" d="M1447 183H1114V301C1114 335.242 1188.54 363 1280.5 363C1372.46 363 1447 335.242 1447 301V183Z"/>
</mask>
<path fill-rule="evenodd" clip-rule="evenodd" d="M1447 183H1114V301C1114 335.242 1188.54 363 1280.5 363C1372.46 363 1447 335.242 1447 301V183Z" fill="white"/>
<path d="M1114 183V179H1110V183H1114ZM1447 183H1451V179H1447V183ZM1114 187H1447V179H1114V187ZM1118 301V183H1110V301H1118ZM1280.5 359C1234.87 359 1193.74 352.106 1164.16 341.092C1149.36 335.579 1137.66 329.111 1129.73 322.131C1121.79 315.145 1118 307.994 1118 301H1110C1110 311.126 1115.53 320.286 1124.44 328.135C1133.36 335.991 1146.04 342.882 1161.37 348.589C1192.05 360.014 1234.17 367 1280.5 367V359ZM1443 301C1443 307.994 1439.21 315.145 1431.27 322.131C1423.34 329.111 1411.64 335.579 1396.84 341.092C1367.26 352.106 1326.13 359 1280.5 359V367C1326.83 367 1368.95 360.014 1399.63 348.589C1414.96 342.882 1427.64 335.991 1436.56 328.135C1445.47 320.286 1451 311.126 1451 301H1443ZM1443 183V301H1451V183H1443Z" fill="#007BFF" mask="url(#path-16-inside-1_1524_128)"/>
<path d="M1445 184C1445 191.777 1440.77 199.43 1432.59 206.632C1424.42 213.831 1412.47 220.405 1397.54 225.966C1367.68 237.083 1326.3 244 1280.5 244C1234.7 244 1193.32 237.083 1163.46 225.966C1148.53 220.405 1136.58 213.831 1128.41 206.632C1120.23 199.43 1116 191.777 1116 184C1116 176.223 1120.23 168.57 1128.41 161.368C1136.58 154.169 1148.53 147.595 1163.46 142.034C1193.32 130.917 1234.7 124 1280.5 124C1326.3 124 1367.68 130.917 1397.54 142.034C1412.47 147.595 1424.42 154.169 1432.59 161.368C1440.77 168.57 1445 176.223 1445 184Z" fill="white" stroke="#007BFF" stroke-width="4"/>
<rect x="574" y="104" width="252" height="159" fill="white" stroke="#007BFF" stroke-width="4" stroke-linejoin="round"/>
<rect x="586" y="116" width="228" height="133" fill="white" stroke="#007BFF" stroke-width="4" stroke-linejoin="round"/>
<rect x="526" y="364" width="353" height="19" fill="white" stroke="#007BFF" stroke-width="4" stroke-linejoin="round"/>
<path d="M575 263H827L879 364H526L575 263Z" fill="white"/>
<path d="M575 263V261H573.747L573.201 262.127L575 263ZM827 263L828.778 262.085L828.22 261H827V263ZM879 364V366C879.697 366 880.344 365.637 880.707 365.041C881.071 364.446 881.097 363.705 880.778 363.085L879 364ZM526 364L524.201 363.127C523.9 363.747 523.939 364.478 524.305 365.062C524.671 365.645 525.311 366 526 366V364ZM575 265H827V261H575V265ZM825.222 263.915L877.222 364.915L880.778 363.085L828.778 262.085L825.222 263.915ZM879 362H526V366H879V362ZM527.799 364.873L576.799 263.873L573.201 262.127L524.201 363.127L527.799 364.873Z" fill="#007BFF"/>
<path d="M572.106 345L600.288 283H799.23L828.351 345H572.106Z" stroke="#007BFF" stroke-width="4" stroke-linejoin="round"/>
<line x1="641.343" y1="281.777" x2="614.343" y2="345.777" stroke="#007BFF" stroke-width="4"/>
<line y1="-2" x2="69.4622" y2="-2" transform="matrix(0.388701 0.921364 0.921364 -0.388701 763.895 281)" stroke="#007BFF" stroke-width="4"/>
<path d="M674.344 281.777L654 345.5" stroke="#007BFF" stroke-width="4"/>
<path d="M729.051 281.777L749.395 345.5" stroke="#007BFF" stroke-width="4"/>
<line x1="698.5" y1="345" x2="698.5" y2="282" stroke="#007BFF" stroke-width="4"/>
<line x1="590.5" y1="304" x2="808.5" y2="304" stroke="#007BFF" stroke-width="4"/>
<path d="M581.5 324H818.5" stroke="#007BFF" stroke-width="4"/>
</g>
<defs>
<clipPath id="clip0_1524_128">
<rect width="1474" height="402" fill="white"/>
</clipPath>
</defs>
</svg>
