<svg width="1474" height="1279" viewBox="0 0 1474 1279" fill="none" xmlns="http://www.w3.org/2000/svg">
<g clip-path="url(#clip0_1524_189)">
<rect width="1474" height="1279" fill="white"/>
<rect x="82.0039" y="466" width="302.107" height="190.904" fill="white" stroke="#007BFF" stroke-width="4" stroke-linejoin="round"/>
<rect x="96.3516" y="480.35" width="273.409" height="159.815" fill="white" stroke="#007BFF" stroke-width="4" stroke-linejoin="round"/>
<rect x="25" y="777.281" width="422.093" height="22.7189" fill="white" stroke="#007BFF" stroke-width="4" stroke-linejoin="round"/>
<path d="M83.5907 656.512H384.915L447.093 777.28H25L83.5907 656.512Z" fill="white"/>
<path d="M83.5907 656.512V654.512H82.3381L81.7913 655.639L83.5907 656.512ZM384.915 656.512L386.693 655.596L386.134 654.512H384.915V656.512ZM447.093 777.28V779.28C447.79 779.28 448.437 778.917 448.8 778.322C449.163 777.726 449.19 776.985 448.871 776.365L447.093 777.28ZM25 777.28L23.2006 776.407C22.8999 777.027 22.9393 777.758 23.305 778.342C23.6707 778.926 24.3111 779.28 25 779.28V777.28ZM83.5907 658.512H384.915V654.512H83.5907V658.512ZM383.136 657.427L445.314 778.196L448.871 776.365L386.693 655.596L383.136 657.427ZM447.093 775.28H25V779.28H447.093V775.28ZM26.7994 778.153L85.3902 657.385L81.7913 655.639L23.2006 776.407L26.7994 778.153Z" fill="#007BFF"/>
<path d="M79.5201 754.953L113.574 680.035H351.955L387.144 754.953H79.5201Z" stroke="#007BFF" stroke-width="4" stroke-linejoin="round"/>
<line x1="162.558" y1="678.813" x2="130.273" y2="755.339" stroke="#007BFF" stroke-width="4"/>
<line y1="-2" x2="83.058" y2="-2" transform="matrix(0.388701 0.921364 0.921364 -0.388701 309.457 678.035)" stroke="#007BFF" stroke-width="4"/>
<path d="M202.378 678.966L178.052 755.16" stroke="#007BFF" stroke-width="4"/>
<path d="M267.79 678.966L292.116 755.16" stroke="#007BFF" stroke-width="4"/>
<line x1="231.652" y1="754.563" x2="231.652" y2="679.232" stroke="#007BFF" stroke-width="4"/>
<line x1="102.121" y1="705.928" x2="362.79" y2="705.928" stroke="#007BFF" stroke-width="4"/>
<path d="M91.3594 729.451H374.747" stroke="#007BFF" stroke-width="4"/>
<rect x="1059" y="30" width="302.107" height="190.904" fill="white" stroke="#007BFF" stroke-width="4" stroke-linejoin="round"/>
<rect x="1073.35" y="44.3496" width="273.409" height="159.815" fill="white" stroke="#007BFF" stroke-width="4" stroke-linejoin="round"/>
<rect x="1002" y="341.281" width="422.093" height="22.7189" fill="white" stroke="#007BFF" stroke-width="4" stroke-linejoin="round"/>
<path d="M1060.59 220.512H1361.91L1424.09 341.28H1002L1060.59 220.512Z" fill="white"/>
<path d="M1060.59 220.512V218.512H1059.34L1058.79 219.639L1060.59 220.512ZM1361.91 220.512L1363.69 219.596L1363.13 218.512H1361.91V220.512ZM1424.09 341.28V343.28C1424.79 343.28 1425.44 342.917 1425.8 342.322C1426.16 341.726 1426.19 340.985 1425.87 340.365L1424.09 341.28ZM1002 341.28L1000.2 340.407C999.9 341.027 999.939 341.758 1000.31 342.342C1000.67 342.926 1001.31 343.28 1002 343.28V341.28ZM1060.59 222.512H1361.91V218.512H1060.59V222.512ZM1360.14 221.427L1422.31 342.196L1425.87 340.365L1363.69 219.596L1360.14 221.427ZM1424.09 339.28H1002V343.28H1424.09V339.28ZM1003.8 342.153L1062.39 221.385L1058.79 219.639L1000.2 340.407L1003.8 342.153Z" fill="#007BFF"/>
<path d="M1056.52 318.953L1090.57 244.035H1328.96L1364.14 318.953H1056.52Z" stroke="#007BFF" stroke-width="4" stroke-linejoin="round"/>
<line x1="1139.56" y1="242.813" x2="1107.27" y2="319.339" stroke="#007BFF" stroke-width="4"/>
<line y1="-2" x2="83.058" y2="-2" transform="matrix(0.388701 0.921364 0.921364 -0.388701 1286.46 242.035)" stroke="#007BFF" stroke-width="4"/>
<path d="M1179.38 242.966L1155.05 319.16" stroke="#007BFF" stroke-width="4"/>
<path d="M1244.79 242.966L1269.12 319.16" stroke="#007BFF" stroke-width="4"/>
<line x1="1208.65" y1="318.563" x2="1208.65" y2="243.232" stroke="#007BFF" stroke-width="4"/>
<line x1="1079.12" y1="269.928" x2="1339.79" y2="269.928" stroke="#007BFF" stroke-width="4"/>
<path d="M1068.36 293.451H1351.75" stroke="#007BFF" stroke-width="4"/>
<rect x="1059" y="466" width="302.107" height="190.904" fill="white" stroke="#007BFF" stroke-width="4" stroke-linejoin="round"/>
<rect x="1073.35" y="480.35" width="273.409" height="159.815" fill="white" stroke="#007BFF" stroke-width="4" stroke-linejoin="round"/>
<rect x="1002" y="777.281" width="422.093" height="22.7189" fill="white" stroke="#007BFF" stroke-width="4" stroke-linejoin="round"/>
<path d="M1060.59 656.512H1361.91L1424.09 777.28H1002L1060.59 656.512Z" fill="white"/>
<path d="M1060.59 656.512V654.512H1059.34L1058.79 655.639L1060.59 656.512ZM1361.91 656.512L1363.69 655.596L1363.13 654.512H1361.91V656.512ZM1424.09 777.28V779.28C1424.79 779.28 1425.44 778.917 1425.8 778.322C1426.16 777.726 1426.19 776.985 1425.87 776.365L1424.09 777.28ZM1002 777.28L1000.2 776.407C999.9 777.027 999.939 777.758 1000.31 778.342C1000.67 778.926 1001.31 779.28 1002 779.28V777.28ZM1060.59 658.512H1361.91V654.512H1060.59V658.512ZM1360.14 657.427L1422.31 778.196L1425.87 776.365L1363.69 655.596L1360.14 657.427ZM1424.09 775.28H1002V779.28H1424.09V775.28ZM1003.8 778.153L1062.39 657.385L1058.79 655.639L1000.2 776.407L1003.8 778.153Z" fill="#007BFF"/>
<path d="M1056.52 754.953L1090.57 680.035H1328.96L1364.14 754.953H1056.52Z" stroke="#007BFF" stroke-width="4" stroke-linejoin="round"/>
<line x1="1139.56" y1="678.813" x2="1107.27" y2="755.339" stroke="#007BFF" stroke-width="4"/>
<line y1="-2" x2="83.058" y2="-2" transform="matrix(0.388701 0.921364 0.921364 -0.388701 1286.46 678.035)" stroke="#007BFF" stroke-width="4"/>
<path d="M1179.38 678.966L1155.05 755.16" stroke="#007BFF" stroke-width="4"/>
<path d="M1244.79 678.966L1269.12 755.16" stroke="#007BFF" stroke-width="4"/>
<line x1="1208.65" y1="754.563" x2="1208.65" y2="679.232" stroke="#007BFF" stroke-width="4"/>
<line x1="1079.12" y1="705.928" x2="1339.79" y2="705.928" stroke="#007BFF" stroke-width="4"/>
<path d="M1068.36 729.451H1351.75" stroke="#007BFF" stroke-width="4"/>
<rect x="1059" y="902" width="302.107" height="190.904" fill="white" stroke="#007BFF" stroke-width="4" stroke-linejoin="round"/>
<rect x="1073.35" y="916.35" width="273.409" height="159.815" fill="white" stroke="#007BFF" stroke-width="4" stroke-linejoin="round"/>
<rect x="1002" y="1213.28" width="422.093" height="22.7189" fill="white" stroke="#007BFF" stroke-width="4" stroke-linejoin="round"/>
<path d="M1060.59 1092.51H1361.91L1424.09 1213.28H1002L1060.59 1092.51Z" fill="white"/>
<path d="M1060.59 1092.51V1090.51H1059.34L1058.79 1091.64L1060.59 1092.51ZM1361.91 1092.51L1363.69 1091.6L1363.13 1090.51H1361.91V1092.51ZM1424.09 1213.28V1215.28C1424.79 1215.28 1425.44 1214.92 1425.8 1214.32C1426.16 1213.73 1426.19 1212.98 1425.87 1212.36L1424.09 1213.28ZM1002 1213.28L1000.2 1212.41C999.9 1213.03 999.939 1213.76 1000.31 1214.34C1000.67 1214.93 1001.31 1215.28 1002 1215.28V1213.28ZM1060.59 1094.51H1361.91V1090.51H1060.59V1094.51ZM1360.14 1093.43L1422.31 1214.2L1425.87 1212.36L1363.69 1091.6L1360.14 1093.43ZM1424.09 1211.28H1002V1215.28H1424.09V1211.28ZM1003.8 1214.15L1062.39 1093.38L1058.79 1091.64L1000.2 1212.41L1003.8 1214.15Z" fill="#007BFF"/>
<path d="M1056.52 1190.95L1090.57 1116.04H1328.96L1364.14 1190.95H1056.52Z" stroke="#007BFF" stroke-width="4" stroke-linejoin="round"/>
<line x1="1139.56" y1="1114.81" x2="1107.27" y2="1191.34" stroke="#007BFF" stroke-width="4"/>
<line y1="-2" x2="83.058" y2="-2" transform="matrix(0.388701 0.921364 0.921364 -0.388701 1286.46 1114.04)" stroke="#007BFF" stroke-width="4"/>
<path d="M1179.38 1114.97L1155.05 1191.16" stroke="#007BFF" stroke-width="4"/>
<path d="M1244.79 1114.97L1269.12 1191.16" stroke="#007BFF" stroke-width="4"/>
<line x1="1208.65" y1="1190.56" x2="1208.65" y2="1115.23" stroke="#007BFF" stroke-width="4"/>
<line x1="1079.12" y1="1141.93" x2="1339.79" y2="1141.93" stroke="#007BFF" stroke-width="4"/>
<path d="M1068.36 1165.45H1351.75" stroke="#007BFF" stroke-width="4"/>
<path d="M155.005 541.73V581H169.69C181.735 581 187.84 573.135 187.84 561.365C187.84 549.54 181.735 541.73 169.69 541.73H155.005ZM159.955 576.49V546.24H169.69C179.205 546.24 182.835 553.17 182.835 561.365C182.835 569.56 179.205 576.49 169.69 576.49H159.955ZM221.234 559.66C224.094 558.12 225.524 555.205 225.524 551.685C225.524 546.295 221.289 541.73 212.984 541.73H195.879V581H213.424C222.389 581 226.734 576.215 226.734 569.945C226.734 565.93 224.534 562.41 221.234 560.87V559.66ZM200.829 546.13H212.764C216.724 546.13 220.519 547.67 220.519 552.125C220.519 556.965 217.219 558.395 212.874 558.395H200.829V546.13ZM200.829 576.6V562.74H213.149C217.769 562.74 221.729 564.5 221.729 569.56C221.729 575.005 217.549 576.6 213.094 576.6H200.829ZM234.443 581H239.283V547.34H240.493L250.558 565.985H255.728L265.793 547.34H267.003V581H271.843V541.73H263.538L253.803 560.155H252.593L242.693 541.73H234.443V581ZM292.87 557.515C289.57 556.8 286.215 555.59 286.215 551.795C286.215 547.67 290.175 545.525 294.905 545.525C300.625 545.525 303.32 547.67 304.255 551.63H309.26C308.38 545.305 303.155 541.015 295.015 541.015C286.16 541.015 281.21 545.8 281.21 551.905C281.21 557.625 285.005 560.705 290.725 561.86C292.65 562.3 296.5 563.015 298.48 563.455C302.33 564.335 305.135 565.93 305.135 570.165C305.135 574.675 300.955 577.205 295.51 577.205C290.12 577.205 285.39 575.39 284.51 570.055H279.505C280.11 576.875 286.105 581.715 295.29 581.715C305.245 581.715 310.14 576.215 310.14 570.055C310.14 563.345 306.18 560.32 300.295 559C298.26 558.56 294.575 557.79 292.87 557.515Z" fill="#274867"/>
<path d="M572.51 487.015V527H577.185V487.015H572.51ZM598.141 498.565C589.451 498.565 584.501 504.945 584.501 513.14C584.501 521.335 589.451 527.715 598.141 527.715C606.776 527.715 611.781 521.335 611.781 513.14C611.781 504.945 606.776 498.565 598.141 498.565ZM598.141 523.645C591.981 523.645 589.176 518.585 589.176 513.14C589.176 507.695 591.981 502.635 598.141 502.635C604.246 502.635 607.106 507.695 607.106 513.14C607.106 518.585 604.246 523.645 598.141 523.645ZM639.372 499.28V502.25H638.162C636.677 500.325 634.037 498.565 629.692 498.565C622.047 498.565 617.372 504.615 617.372 512.755C617.372 520.84 622.047 526.89 629.692 526.89C633.872 526.89 636.512 525.13 637.997 523.205H639.207V525.405C639.207 530.96 636.622 534.425 630.902 534.425C626.722 534.425 623.862 533.215 623.037 529.915H618.417C619.242 535.415 623.862 538.385 630.957 538.385C639.042 538.385 643.882 533.38 643.882 525.625V499.28H639.372ZM630.572 522.82C625.127 522.82 622.047 518.75 622.047 512.755C622.047 506.65 625.127 502.635 630.572 502.635C636.512 502.635 639.317 507.42 639.317 512.755C639.317 518.035 636.512 522.82 630.572 522.82ZM657.865 492.075V487.015H652.915V492.075H657.865ZM657.7 499.28H653.025V527H657.7V499.28ZM691.52 527V509.4C691.52 502.745 687.78 498.565 680.96 498.565C677.22 498.565 674.14 500.105 672.6 502.25H671.39V499.28H666.88V527H671.555V511.985C671.555 507.09 674.855 502.745 679.805 502.745C684.48 502.745 686.845 505.275 686.845 510.39V527H691.52ZM705.518 527V520.62H699.798V527H705.518ZM705.518 505.66V499.28H699.798V505.66H705.518ZM742.871 502.635C748.426 502.635 751.396 506.98 751.396 513.14C751.396 519.3 748.426 523.645 742.871 523.645C736.711 523.645 734.181 518.585 734.181 513.14C734.181 507.695 736.711 502.635 742.871 502.635ZM729.561 499.28V538H734.236V524.03H735.446C736.931 526.01 739.516 527.715 743.916 527.715C751.561 527.715 756.071 521.5 756.071 513.14C756.071 504.945 751.561 498.565 743.916 498.565C739.516 498.565 736.821 500.325 735.281 502.25H734.071V499.28H729.561ZM781.054 527H785.454V508.135C785.454 501.92 780.999 498.565 774.014 498.565C767.799 498.565 763.399 501.535 763.014 506.65H767.689C767.909 504.23 769.999 502.635 774.124 502.635C778.964 502.635 780.889 505.055 780.889 508.41V509.51H771.869C764.169 509.51 761.254 514.24 761.254 518.695C761.254 523.425 764.829 527.715 771.209 527.715C775.169 527.715 778.139 526.23 779.844 524.085H781.054V527ZM772.364 523.645C768.239 523.645 765.929 521.665 765.929 518.53C765.929 515.23 768.019 513.25 772.584 513.25H780.889V515.78C780.889 520.18 776.984 523.645 772.364 523.645ZM801.714 509.73C798.909 509.29 797.534 508.465 797.534 506.32C797.534 503.955 799.954 502.635 803.529 502.635C806.994 502.635 809.634 503.845 810.019 506.485H814.694C814.089 501.645 810.294 498.565 803.749 498.565C796.269 498.565 792.804 502.14 792.804 506.76C792.804 510.94 795.499 513.03 799.459 513.745L805.674 514.79C809.194 515.395 810.734 516.715 810.734 519.135C810.734 522.16 807.984 523.645 803.804 523.645C799.624 523.645 796.874 522.105 796.434 518.97H791.704C792.309 524.25 796.159 527.715 804.024 527.715C811.504 527.715 815.409 523.59 815.409 519.025C815.409 513.965 812.329 511.49 807.489 510.665L804.354 510.17L801.714 509.73ZM829.966 509.73C827.161 509.29 825.786 508.465 825.786 506.32C825.786 503.955 828.206 502.635 831.781 502.635C835.246 502.635 837.886 503.845 838.271 506.485H842.946C842.341 501.645 838.546 498.565 832.001 498.565C824.521 498.565 821.056 502.14 821.056 506.76C821.056 510.94 823.751 513.03 827.711 513.745L833.926 514.79C837.446 515.395 838.986 516.715 838.986 519.135C838.986 522.16 836.236 523.645 832.056 523.645C827.876 523.645 825.126 522.105 824.686 518.97H819.956C820.561 524.25 824.411 527.715 832.276 527.715C839.756 527.715 843.661 523.59 843.661 519.025C843.661 513.965 840.581 511.49 835.741 510.665L832.606 510.17L829.966 509.73ZM862.178 508.355L857.448 522.05H856.238L852.938 499.28H848.428L852.388 527H859.648L864.488 512.975H865.643L870.483 527H877.633L881.648 499.28H877.138L873.948 522.05H872.738L868.118 508.355H862.178ZM900.48 498.565C891.79 498.565 886.84 504.945 886.84 513.14C886.84 521.335 891.79 527.715 900.48 527.715C909.115 527.715 914.12 521.335 914.12 513.14C914.12 504.945 909.115 498.565 900.48 498.565ZM900.48 523.645C894.32 523.645 891.515 518.585 891.515 513.14C891.515 507.695 894.32 502.635 900.48 502.635C906.585 502.635 909.445 507.695 909.445 513.14C909.445 518.585 906.585 523.645 900.48 523.645ZM937.256 499.28H935.166C931.151 499.28 928.511 500.875 927.136 502.58H925.926V499.28H921.416V527H926.091V513.14C926.091 507.035 929.446 503.68 934.946 503.68H937.256V499.28ZM963.514 487.015V502.25H962.304C960.764 500.27 958.234 498.565 953.834 498.565C946.189 498.565 941.679 504.78 941.679 513.14C941.679 521.335 946.189 527.715 953.834 527.715C958.234 527.715 960.929 525.955 962.469 524.03H963.679V527H968.189V487.015H963.514ZM954.879 523.645C949.324 523.645 946.354 519.3 946.354 513.14C946.354 506.98 949.324 502.635 954.879 502.635C961.039 502.635 963.569 507.695 963.569 513.14C963.569 518.585 961.039 523.645 954.879 523.645Z" fill="#274867"/>
<path d="M572.51 841.015V881H577.185V841.015H572.51ZM598.141 852.565C589.451 852.565 584.501 858.945 584.501 867.14C584.501 875.335 589.451 881.715 598.141 881.715C606.776 881.715 611.781 875.335 611.781 867.14C611.781 858.945 606.776 852.565 598.141 852.565ZM598.141 877.645C591.981 877.645 589.176 872.585 589.176 867.14C589.176 861.695 591.981 856.635 598.141 856.635C604.246 856.635 607.106 861.695 607.106 867.14C607.106 872.585 604.246 877.645 598.141 877.645ZM639.372 853.28V856.25H638.162C636.677 854.325 634.037 852.565 629.692 852.565C622.047 852.565 617.372 858.615 617.372 866.755C617.372 874.84 622.047 880.89 629.692 880.89C633.872 880.89 636.512 879.13 637.997 877.205H639.207V879.405C639.207 884.96 636.622 888.425 630.902 888.425C626.722 888.425 623.862 887.215 623.037 883.915H618.417C619.242 889.415 623.862 892.385 630.957 892.385C639.042 892.385 643.882 887.38 643.882 879.625V853.28H639.372ZM630.572 876.82C625.127 876.82 622.047 872.75 622.047 866.755C622.047 860.65 625.127 856.635 630.572 856.635C636.512 856.635 639.317 861.42 639.317 866.755C639.317 872.035 636.512 876.82 630.572 876.82ZM657.865 846.075V841.015H652.915V846.075H657.865ZM657.7 853.28H653.025V881H657.7V853.28ZM691.52 881V863.4C691.52 856.745 687.78 852.565 680.96 852.565C677.22 852.565 674.14 854.105 672.6 856.25H671.39V853.28H666.88V881H671.555V865.985C671.555 861.09 674.855 856.745 679.805 856.745C684.48 856.745 686.845 859.275 686.845 864.39V881H691.52ZM705.518 881V874.62H699.798V881H705.518ZM705.518 859.66V853.28H699.798V859.66H705.518ZM742.871 856.635C748.426 856.635 751.396 860.98 751.396 867.14C751.396 873.3 748.426 877.645 742.871 877.645C736.711 877.645 734.181 872.585 734.181 867.14C734.181 861.695 736.711 856.635 742.871 856.635ZM729.561 853.28V892H734.236V878.03H735.446C736.931 880.01 739.516 881.715 743.916 881.715C751.561 881.715 756.071 875.5 756.071 867.14C756.071 858.945 751.561 852.565 743.916 852.565C739.516 852.565 736.821 854.325 735.281 856.25H734.071V853.28H729.561ZM781.054 881H785.454V862.135C785.454 855.92 780.999 852.565 774.014 852.565C767.799 852.565 763.399 855.535 763.014 860.65H767.689C767.909 858.23 769.999 856.635 774.124 856.635C778.964 856.635 780.889 859.055 780.889 862.41V863.51H771.869C764.169 863.51 761.254 868.24 761.254 872.695C761.254 877.425 764.829 881.715 771.209 881.715C775.169 881.715 778.139 880.23 779.844 878.085H781.054V881ZM772.364 877.645C768.239 877.645 765.929 875.665 765.929 872.53C765.929 869.23 768.019 867.25 772.584 867.25H780.889V869.78C780.889 874.18 776.984 877.645 772.364 877.645ZM801.714 863.73C798.909 863.29 797.534 862.465 797.534 860.32C797.534 857.955 799.954 856.635 803.529 856.635C806.994 856.635 809.634 857.845 810.019 860.485H814.694C814.089 855.645 810.294 852.565 803.749 852.565C796.269 852.565 792.804 856.14 792.804 860.76C792.804 864.94 795.499 867.03 799.459 867.745L805.674 868.79C809.194 869.395 810.734 870.715 810.734 873.135C810.734 876.16 807.984 877.645 803.804 877.645C799.624 877.645 796.874 876.105 796.434 872.97H791.704C792.309 878.25 796.159 881.715 804.024 881.715C811.504 881.715 815.409 877.59 815.409 873.025C815.409 867.965 812.329 865.49 807.489 864.665L804.354 864.17L801.714 863.73ZM829.966 863.73C827.161 863.29 825.786 862.465 825.786 860.32C825.786 857.955 828.206 856.635 831.781 856.635C835.246 856.635 837.886 857.845 838.271 860.485H842.946C842.341 855.645 838.546 852.565 832.001 852.565C824.521 852.565 821.056 856.14 821.056 860.76C821.056 864.94 823.751 867.03 827.711 867.745L833.926 868.79C837.446 869.395 838.986 870.715 838.986 873.135C838.986 876.16 836.236 877.645 832.056 877.645C827.876 877.645 825.126 876.105 824.686 872.97H819.956C820.561 878.25 824.411 881.715 832.276 881.715C839.756 881.715 843.661 877.59 843.661 873.025C843.661 867.965 840.581 865.49 835.741 864.665L832.606 864.17L829.966 863.73ZM862.178 862.355L857.448 876.05H856.238L852.938 853.28H848.428L852.388 881H859.648L864.488 866.975H865.643L870.483 881H877.633L881.648 853.28H877.138L873.948 876.05H872.738L868.118 862.355H862.178ZM900.48 852.565C891.79 852.565 886.84 858.945 886.84 867.14C886.84 875.335 891.79 881.715 900.48 881.715C909.115 881.715 914.12 875.335 914.12 867.14C914.12 858.945 909.115 852.565 900.48 852.565ZM900.48 877.645C894.32 877.645 891.515 872.585 891.515 867.14C891.515 861.695 894.32 856.635 900.48 856.635C906.585 856.635 909.445 861.695 909.445 867.14C909.445 872.585 906.585 877.645 900.48 877.645ZM937.256 853.28H935.166C931.151 853.28 928.511 854.875 927.136 856.58H925.926V853.28H921.416V881H926.091V867.14C926.091 861.035 929.446 857.68 934.946 857.68H937.256V853.28ZM963.514 841.015V856.25H962.304C960.764 854.27 958.234 852.565 953.834 852.565C946.189 852.565 941.679 858.78 941.679 867.14C941.679 875.335 946.189 881.715 953.834 881.715C958.234 881.715 960.929 879.955 962.469 878.03H963.679V881H968.189V841.015H963.514ZM954.879 877.645C949.324 877.645 946.354 873.3 946.354 867.14C946.354 860.98 949.324 856.635 954.879 856.635C961.039 856.635 963.569 861.695 963.569 867.14C963.569 872.585 961.039 877.645 954.879 877.645Z" fill="#274867"/>
<path d="M927.229 252.984L777.949 377.43" stroke="#007BFF" stroke-width="4"/>
<path d="M783.333 372.415L775.267 362.74L761.051 390.977L791.275 381.942L783.333 372.415Z" fill="#007BFF" stroke="#007BFF" stroke-width="2"/>
<path d="M969 684L774.652 684" stroke="#007BFF" stroke-width="4"/>
<path d="M782 683.597L782 671L753 683.586L782 696L782 683.597Z" fill="#007BFF" stroke="#007BFF" stroke-width="2"/>
<path d="M927.229 1082.53L777.949 958.082" stroke="#007BFF" stroke-width="4"/>
<path d="M783.333 963.097L775.267 972.772L761.051 944.535L791.275 953.569L783.333 963.097Z" fill="#007BFF" stroke="#007BFF" stroke-width="2"/>
</g>
<defs>
<clipPath id="clip0_1524_189">
<rect width="1474" height="1279" fill="white"/>
</clipPath>
</defs>
</svg>
