<svg width="1474" height="852" viewBox="0 0 1474 852" fill="none" xmlns="http://www.w3.org/2000/svg">
<g clip-path="url(#clip0_1213_93)">
<rect width="1474" height="852" fill="white"/>
<rect x="252.58" y="212.553" width="108.524" height="93.3419" fill="#007BFF"/>
<rect x="252.58" y="313.766" width="108.524" height="83.7828" fill="#CCE5FF"/>
<rect x="252.58" y="403.172" width="108.524" height="83.7828" fill="#CCE5FF"/>
<rect x="252.58" y="492.578" width="108.524" height="83.7828" fill="#CCE5FF"/>
<rect x="252.58" y="581.984" width="108.524" height="83.7828" fill="#CCE5FF"/>
<rect x="252.58" y="671.391" width="108.524" height="83.7828" fill="#CCE5FF"/>
<rect x="252.58" y="760.795" width="108.524" height="83.7828" fill="#CCE5FF"/>
<rect x="364.48" y="212.553" width="182.748" height="93.3419" fill="#007BFF"/>
<rect x="364.48" y="313.766" width="182.748" height="83.7828" fill="#CCE5FF"/>
<rect x="364.48" y="403.172" width="182.748" height="83.7828" fill="#CCE5FF"/>
<rect x="364.48" y="492.578" width="182.748" height="83.7828" fill="#CCE5FF"/>
<rect x="364.48" y="581.984" width="182.748" height="83.7828" fill="#CCE5FF"/>
<rect x="364.48" y="671.391" width="182.748" height="83.7828" fill="#CCE5FF"/>
<rect x="364.48" y="760.795" width="182.748" height="83.7828" fill="#CCE5FF"/>
<rect x="763.713" y="212.553" width="95.5911" height="93.3419" fill="#007BFF"/>
<rect x="763.713" y="313.766" width="95.5911" height="83.7828" fill="#CCE5FF"/>
<rect x="763.713" y="403.172" width="95.5911" height="83.7828" fill="#CCE5FF"/>
<rect x="763.713" y="492.578" width="95.5911" height="83.7828" fill="#CCE5FF"/>
<rect x="763.713" y="581.984" width="95.5911" height="83.7828" fill="#CCE5FF"/>
<rect x="763.713" y="671.391" width="95.5911" height="83.7828" fill="#CCE5FF"/>
<rect x="763.713" y="760.795" width="95.5911" height="83.7828" fill="#CCE5FF"/>
<rect x="862.678" y="212.553" width="218.735" height="93.3419" fill="#007BFF"/>
<rect x="862.678" y="313.766" width="218.735" height="83.7828" fill="#CCE5FF"/>
<rect x="862.678" y="403.172" width="218.735" height="83.7828" fill="#CCE5FF"/>
<rect x="862.678" y="492.578" width="218.735" height="83.7828" fill="#CCE5FF"/>
<rect x="862.678" y="581.984" width="218.735" height="83.7828" fill="#CCE5FF"/>
<rect x="862.678" y="671.391" width="218.735" height="83.7828" fill="#CCE5FF"/>
<rect x="862.678" y="760.795" width="218.735" height="83.7828" fill="#CCE5FF"/>
<rect x="550.602" y="212.553" width="209.738" height="93.3419" fill="#007BFF"/>
<rect x="550.602" y="313.766" width="209.738" height="83.7828" fill="#CCE5FF"/>
<rect x="550.602" y="403.172" width="209.738" height="83.7828" fill="#CCE5FF"/>
<rect x="550.602" y="492.578" width="209.738" height="83.7828" fill="#CCE5FF"/>
<rect x="550.602" y="581.984" width="209.738" height="83.7828" fill="#CCE5FF"/>
<rect x="550.602" y="671.391" width="209.738" height="83.7828" fill="#CCE5FF"/>
<rect x="550.602" y="760.795" width="209.738" height="83.7828" fill="#CCE5FF"/>
<path d="M297.984 249.992V246.888H294.947V249.992H297.984ZM297.883 254.412H295.015V271.416H297.883V254.412ZM315.862 246.888V256.234H315.12C314.175 255.019 312.623 253.973 309.924 253.973C305.234 253.973 302.468 257.786 302.468 262.914C302.468 267.941 305.234 271.855 309.924 271.855C312.623 271.855 314.276 270.775 315.221 269.594H315.963V271.416H318.73V246.888H315.862ZM310.565 269.358C307.157 269.358 305.336 266.693 305.336 262.914C305.336 259.135 307.157 256.47 310.565 256.47C314.344 256.47 315.896 259.574 315.896 262.914C315.896 266.254 314.344 269.358 310.565 269.358Z" fill="white"/>
<path d="M300.333 367.01H314.064V364.378H308.902V343.393H305.225L300.299 346.733V349.837L305.259 346.497H305.933V364.378H300.333V367.01Z" fill="#274867"/>
<path d="M419.445 349.905C419.749 346.936 421.604 345.552 424.27 345.552C427.137 345.552 429.027 347.138 429.027 350.107C429.027 352.907 426.969 354.83 425.349 356.281C424.101 357.428 421.874 359.317 419.985 360.836L416.51 363.67V367.01H432.738V364.378H420.828V363.636L426.766 358.643C429.566 356.315 431.996 353.312 431.996 350.107C431.996 345.384 428.757 342.921 424.337 342.921C420.153 342.921 416.746 345.181 416.476 349.905H419.445ZM444.851 342.921C439.858 342.921 436.18 346.699 436.18 355.201C436.18 363.703 439.858 367.448 444.851 367.448C449.844 367.448 453.555 363.703 453.555 355.201C453.555 346.699 449.844 342.921 444.851 342.921ZM444.851 364.817C440.937 364.817 439.149 361.038 439.149 355.201C439.149 349.331 440.937 345.552 444.851 345.552C448.798 345.552 450.586 349.331 450.586 355.201C450.586 361.038 448.798 364.817 444.851 364.817ZM465.937 342.921C460.944 342.921 457.266 346.699 457.266 355.201C457.266 363.703 460.944 367.448 465.937 367.448C470.93 367.448 474.642 363.703 474.642 355.201C474.642 346.699 470.93 342.921 465.937 342.921ZM465.937 364.817C462.023 364.817 460.235 361.038 460.235 355.201C460.235 349.331 462.023 345.552 465.937 345.552C469.884 345.552 471.673 349.331 471.673 355.201C471.673 361.038 469.884 364.817 465.937 364.817ZM487.023 342.921C482.03 342.921 478.353 346.699 478.353 355.201C478.353 363.703 482.03 367.448 487.023 367.448C492.017 367.448 495.728 363.703 495.728 355.201C495.728 346.699 492.017 342.921 487.023 342.921ZM487.023 364.817C483.11 364.817 481.322 361.038 481.322 355.201C481.322 349.331 483.11 345.552 487.023 345.552C490.971 345.552 492.759 349.331 492.759 355.201C492.759 361.038 490.971 364.817 487.023 364.817Z" fill="#274867"/>
<path d="M418.454 457.539H432.186V454.907H427.024V433.922H423.346L418.421 437.262V440.366L423.38 437.026H424.055V454.907H418.454V457.539ZM448.613 444.719C449.828 444.179 451.582 442.391 451.582 439.759C451.582 436.014 448.343 433.45 443.755 433.45C439.166 433.45 435.927 436.014 435.927 439.759C435.927 442.458 437.648 444.179 438.896 444.719V445.461C437.311 446.001 435.219 447.991 435.219 451.095C435.219 455.009 438.559 457.978 443.755 457.978C448.95 457.978 452.29 455.009 452.29 451.095C452.29 447.957 450.165 446.001 448.613 445.461V444.719ZM443.755 436.014C446.454 436.014 448.68 437.364 448.68 439.894C448.68 442.424 446.454 443.808 443.755 443.808C441.056 443.808 438.829 442.424 438.829 439.894C438.829 437.364 441.056 436.014 443.755 436.014ZM443.755 455.346C440.28 455.346 438.154 453.558 438.154 450.825C438.154 448.025 440.28 446.372 443.755 446.372C447.23 446.372 449.355 448.025 449.355 450.825C449.355 453.558 447.23 455.346 443.755 455.346ZM469.238 444.719C470.453 444.179 472.207 442.391 472.207 439.759C472.207 436.014 468.968 433.45 464.38 433.45C459.791 433.45 456.552 436.014 456.552 439.759C456.552 442.458 458.273 444.179 459.521 444.719V445.461C457.936 446.001 455.844 447.991 455.844 451.095C455.844 455.009 459.184 457.978 464.38 457.978C469.575 457.978 472.915 455.009 472.915 451.095C472.915 447.957 470.79 446.001 469.238 445.461V444.719ZM464.38 436.014C467.079 436.014 469.305 437.364 469.305 439.894C469.305 442.424 467.079 443.808 464.38 443.808C461.681 443.808 459.454 442.424 459.454 439.894C459.454 437.364 461.681 436.014 464.38 436.014ZM464.38 455.346C460.905 455.346 458.779 453.558 458.779 450.825C458.779 448.025 460.905 446.372 464.38 446.372C467.855 446.372 469.98 448.025 469.98 450.825C469.98 453.558 467.855 455.346 464.38 455.346ZM485.241 433.45C480.248 433.45 476.57 437.229 476.57 445.731C476.57 454.233 480.248 457.978 485.241 457.978C490.234 457.978 493.945 454.233 493.945 445.731C493.945 437.229 490.234 433.45 485.241 433.45ZM485.241 455.346C481.327 455.346 479.539 451.567 479.539 445.731C479.539 439.86 481.327 436.082 485.241 436.082C489.188 436.082 490.976 439.86 490.976 445.731C490.976 451.567 489.188 455.346 485.241 455.346Z" fill="#274867"/>
<path d="M418.999 546.947H432.73V544.316H427.568V523.331H423.891L418.965 526.671V529.775L423.925 526.435H424.6V544.316H418.999V546.947ZM443.017 538.681C445.851 538.681 447.741 537.366 448.55 536.387H449.293C449.124 541.549 446.965 544.754 443.186 544.754C440.892 544.754 439.61 543.742 439.036 541.752H436.101C436.641 544.99 439.171 547.386 443.186 547.386C449.36 547.386 452.16 541.65 452.16 534.464C452.16 525.962 448.517 522.858 443.49 522.858C438.463 522.858 435.46 526.502 435.46 530.989C435.46 535.476 438.699 538.681 443.017 538.681ZM443.523 525.49C446.391 525.49 448.719 527.447 448.719 530.888C448.719 534.262 446.425 536.084 443.591 536.084C440.723 536.084 438.429 534.363 438.429 530.854C438.429 527.345 440.656 525.49 443.523 525.49ZM469.157 534.127C470.371 533.587 472.126 531.799 472.126 529.167C472.126 525.422 468.887 522.858 464.298 522.858C459.71 522.858 456.471 525.422 456.471 529.167C456.471 531.866 458.192 533.587 459.44 534.127V534.869C457.854 535.409 455.763 537.399 455.763 540.503C455.763 544.417 459.103 547.386 464.298 547.386C469.494 547.386 472.834 544.417 472.834 540.503C472.834 537.366 470.709 535.409 469.157 534.869V534.127ZM464.298 525.422C466.997 525.422 469.224 526.772 469.224 529.302C469.224 531.833 466.997 533.216 464.298 533.216C461.599 533.216 459.373 531.833 459.373 529.302C459.373 526.772 461.599 525.422 464.298 525.422ZM464.298 544.754C460.823 544.754 458.698 542.966 458.698 540.233C458.698 537.433 460.823 535.78 464.298 535.78C467.773 535.78 469.899 537.433 469.899 540.233C469.899 542.966 467.773 544.754 464.298 544.754ZM485.328 531.057C483.135 531.057 481.853 531.731 480.774 532.71H480.031L480.571 525.895H491.671V523.331H478.176L477.13 535.78H480.099C481.111 534.295 482.663 533.553 484.788 533.553C487.96 533.553 489.95 535.847 489.95 539.086C489.95 542.595 487.825 544.754 484.687 544.754C481.82 544.754 479.896 543.27 479.525 540.335H476.59C476.86 544.316 479.627 547.386 484.822 547.386C489.613 547.386 492.919 544.08 492.919 538.951C492.919 534.565 490.052 531.057 485.328 531.057Z" fill="#274867"/>
<path d="M421.717 619.246C422.021 616.277 423.876 614.894 426.542 614.894C429.409 614.894 431.299 616.48 431.299 619.449C431.299 622.249 429.241 624.172 427.621 625.623C426.373 626.77 424.146 628.659 422.257 630.177L418.782 633.011V636.352H435.01V633.72H423.1V632.978L429.038 627.985C431.839 625.657 434.268 622.654 434.268 619.449C434.268 614.725 431.029 612.263 426.609 612.263C422.426 612.263 419.018 614.523 418.748 619.246H421.717ZM447.123 612.263C442.13 612.263 438.452 616.041 438.452 624.543C438.452 633.045 442.13 636.79 447.123 636.79C452.116 636.79 455.827 633.045 455.827 624.543C455.827 616.041 452.116 612.263 447.123 612.263ZM447.123 634.159C443.209 634.159 441.421 630.38 441.421 624.543C441.421 618.673 443.209 614.894 447.123 614.894C451.07 614.894 452.858 618.673 452.858 624.543C452.858 630.38 451.07 634.159 447.123 634.159ZM459.674 636.352H473.405V633.72H468.243V612.735H464.566L459.64 616.075V619.179L464.599 615.839H465.274V633.72H459.674V636.352ZM489.832 623.531C491.047 622.991 492.801 621.203 492.801 618.572C492.801 614.827 489.562 612.263 484.974 612.263C480.386 612.263 477.147 614.827 477.147 618.572C477.147 621.271 478.867 622.991 480.116 623.531V624.273C478.53 624.813 476.438 626.804 476.438 629.908C476.438 633.821 479.778 636.79 484.974 636.79C490.17 636.79 493.51 633.821 493.51 629.908C493.51 626.77 491.384 624.813 489.832 624.273V623.531ZM484.974 614.827C487.673 614.827 489.9 616.176 489.9 618.707C489.9 621.237 487.673 622.62 484.974 622.62C482.275 622.62 480.048 621.237 480.048 618.707C480.048 616.176 482.275 614.827 484.974 614.827ZM484.974 634.159C481.499 634.159 479.373 632.37 479.373 629.638C479.373 626.837 481.499 625.184 484.974 625.184C488.449 625.184 490.574 626.837 490.574 629.638C490.574 632.37 488.449 634.159 484.974 634.159Z" fill="#274867"/>
<path d="M419.015 816.287H432.747V813.656H427.585V792.67H423.907L418.982 796.011V799.114L423.941 795.774H424.616V813.656H419.015V816.287ZM443.034 808.021C445.868 808.021 447.757 806.706 448.567 805.727H449.309C449.14 810.889 446.981 814.094 443.202 814.094C440.908 814.094 439.626 813.082 439.053 811.091H436.118C436.657 814.33 439.188 816.726 443.202 816.726C449.377 816.726 452.177 810.99 452.177 803.804C452.177 795.302 448.533 792.198 443.506 792.198C438.479 792.198 435.476 795.842 435.476 800.329C435.476 804.816 438.715 808.021 443.034 808.021ZM443.54 794.83C446.408 794.83 448.736 796.787 448.736 800.228C448.736 803.602 446.441 805.423 443.607 805.423C440.74 805.423 438.445 803.703 438.445 800.194C438.445 796.685 440.672 794.83 443.54 794.83ZM469.915 808.123V792.67H465.766L455.341 807.38V810.754H467.014V816.287H469.915V810.754H473.154V808.123H469.915ZM458.444 808.123V807.38L466.305 796.011H467.048V808.123H458.444ZM485.681 800.903C482.847 800.903 480.958 802.218 480.148 803.197H479.406C479.575 798.035 481.734 794.83 485.513 794.83C487.807 794.83 489.089 795.842 489.662 797.832H492.598C492.058 794.594 489.527 792.198 485.513 792.198C479.339 792.198 476.538 797.934 476.538 805.12C476.538 813.622 480.182 816.726 485.209 816.726C490.236 816.726 493.239 813.082 493.239 808.595C493.239 804.108 490 800.903 485.681 800.903ZM485.175 814.094C482.308 814.094 479.98 812.137 479.98 808.696C479.98 805.322 482.274 803.5 485.108 803.5C487.976 803.5 490.27 805.221 490.27 808.73C490.27 812.239 488.043 814.094 485.175 814.094Z" fill="#274867"/>
<path d="M613.872 816.726C618.629 816.726 621.463 813.723 621.463 808.595V792.198H618.427V808.629C618.427 812.272 616.639 813.959 613.939 813.959C611.139 813.959 609.419 812.373 609.149 809.033H606.112C606.416 814.027 609.452 816.726 613.872 816.726ZM641.977 806.773C641.876 802.589 639.447 798.845 634.386 798.845C629.224 798.845 626.187 802.387 626.187 807.616C626.187 812.846 629.156 816.726 634.453 816.726C638.671 816.726 641.133 814.499 641.673 811.598H638.772C638.266 813.217 636.849 814.229 634.453 814.229C630.945 814.229 629.123 811.8 629.021 807.751H641.977V806.773ZM634.318 801.341C637.186 801.341 638.839 803.197 639.008 805.356H629.19C629.561 803.197 631.248 801.341 634.318 801.341ZM651.165 805.693C649.444 805.423 648.601 804.917 648.601 803.602C648.601 802.151 650.085 801.341 652.278 801.341C654.404 801.341 656.023 802.083 656.259 803.703H659.127C658.756 800.734 656.428 798.845 652.413 798.845C647.825 798.845 645.699 801.038 645.699 803.872C645.699 806.436 647.353 807.718 649.782 808.156L653.594 808.797C655.753 809.168 656.698 809.978 656.698 811.463C656.698 813.318 655.011 814.229 652.447 814.229C649.883 814.229 648.196 813.284 647.926 811.361H645.025C645.396 814.6 647.757 816.726 652.582 816.726C657.17 816.726 659.566 814.195 659.566 811.395C659.566 808.291 657.676 806.773 654.707 806.267L652.784 805.963L651.165 805.693ZM668.495 805.693C666.775 805.423 665.931 804.917 665.931 803.602C665.931 802.151 667.416 801.341 669.609 801.341C671.734 801.341 673.354 802.083 673.59 803.703H676.457C676.086 800.734 673.758 798.845 669.744 798.845C665.155 798.845 663.03 801.038 663.03 803.872C663.03 806.436 664.683 807.718 667.112 808.156L670.924 808.797C673.084 809.168 674.028 809.978 674.028 811.463C674.028 813.318 672.341 814.229 669.777 814.229C667.213 814.229 665.526 813.284 665.256 811.361H662.355C662.726 814.6 665.088 816.726 669.912 816.726C674.501 816.726 676.896 814.195 676.896 811.395C676.896 808.291 675.007 806.773 672.038 806.267L670.115 805.963L668.495 805.693ZM684.139 794.863V791.76H681.102V794.863H684.139ZM684.037 799.283H681.17V816.287H684.037V799.283ZM704.412 806.773C704.311 802.589 701.882 798.845 696.821 798.845C691.659 798.845 688.623 802.387 688.623 807.616C688.623 812.846 691.592 816.726 696.888 816.726C701.106 816.726 703.569 814.499 704.108 811.598H701.207C700.701 813.217 699.284 814.229 696.888 814.229C693.38 814.229 691.558 811.8 691.457 807.751H704.412V806.773ZM696.753 801.341C699.621 801.341 701.274 803.197 701.443 805.356H691.625C691.996 803.197 693.683 801.341 696.753 801.341Z" fill="#274867"/>
<path d="M613.872 367.448C618.629 367.448 621.463 364.446 621.463 359.317V342.921H618.427V359.351C618.427 362.995 616.639 364.682 613.939 364.682C611.139 364.682 609.419 363.096 609.149 359.756H606.112C606.416 364.749 609.452 367.448 613.872 367.448ZM641.977 357.496C641.876 353.312 639.447 349.567 634.386 349.567C629.224 349.567 626.187 353.11 626.187 358.339C626.187 363.568 629.156 367.448 634.453 367.448C638.671 367.448 641.133 365.222 641.673 362.32H638.772C638.266 363.94 636.849 364.952 634.453 364.952C630.945 364.952 629.123 362.523 629.021 358.474H641.977V357.496ZM634.318 352.064C637.186 352.064 638.839 353.919 639.008 356.079H629.19C629.561 353.919 631.248 352.064 634.318 352.064ZM651.165 356.416C649.444 356.146 648.601 355.64 648.601 354.324C648.601 352.874 650.085 352.064 652.278 352.064C654.404 352.064 656.023 352.806 656.259 354.425H659.127C658.756 351.457 656.428 349.567 652.413 349.567C647.825 349.567 645.699 351.76 645.699 354.594C645.699 357.158 647.353 358.44 649.782 358.879L653.594 359.52C655.753 359.891 656.698 360.701 656.698 362.185C656.698 364.041 655.011 364.952 652.447 364.952C649.883 364.952 648.196 364.007 647.926 362.084H645.025C645.396 365.323 647.757 367.448 652.582 367.448C657.17 367.448 659.566 364.918 659.566 362.118C659.566 359.014 657.676 357.496 654.707 356.99L652.784 356.686L651.165 356.416ZM668.495 356.416C666.775 356.146 665.931 355.64 665.931 354.324C665.931 352.874 667.416 352.064 669.609 352.064C671.734 352.064 673.354 352.806 673.59 354.425H676.457C676.086 351.457 673.758 349.567 669.744 349.567C665.155 349.567 663.03 351.76 663.03 354.594C663.03 357.158 664.683 358.44 667.112 358.879L670.924 359.52C673.084 359.891 674.028 360.701 674.028 362.185C674.028 364.041 672.341 364.952 669.777 364.952C667.213 364.952 665.526 364.007 665.256 362.084H662.355C662.726 365.323 665.088 367.448 669.912 367.448C674.501 367.448 676.896 364.918 676.896 362.118C676.896 359.014 675.007 357.496 672.038 356.99L670.115 356.686L668.495 356.416ZM684.139 345.586V342.482H681.102V345.586H684.139ZM684.037 350.006H681.17V367.01H684.037V350.006ZM704.412 357.496C704.311 353.312 701.882 349.567 696.821 349.567C691.659 349.567 688.623 353.11 688.623 358.339C688.623 363.568 691.592 367.448 696.888 367.448C701.106 367.448 703.569 365.222 704.108 362.32H701.207C700.701 363.94 699.284 364.952 696.888 364.952C693.38 364.952 691.558 362.523 691.457 358.474H704.412V357.496ZM696.753 352.064C699.621 352.064 701.274 353.919 701.443 356.079H691.625C691.996 353.919 693.683 352.064 696.753 352.064Z" fill="#274867"/>
<path d="M644.18 47.1738H647.998V30.804C647.998 25.411 644.133 22.4998 638.072 22.4998C632.679 22.4998 628.861 25.077 628.526 29.5154H632.583C632.774 27.4155 634.588 26.0315 638.167 26.0315C642.367 26.0315 644.037 28.1314 644.037 31.0426V31.9971H636.21C629.529 31.9971 626.999 36.1015 626.999 39.9673C626.999 44.0717 630.101 47.7943 635.638 47.7943C639.074 47.7943 641.651 46.5057 643.13 44.6444H644.18V47.1738ZM636.64 44.2626C633.06 44.2626 631.056 42.5445 631.056 39.8241C631.056 36.9606 632.869 35.2425 636.831 35.2425H644.037V37.4378C644.037 41.2559 640.649 44.2626 636.64 44.2626ZM661.01 23.1202V15.866H656.954V23.1202H652.802V26.6519H656.954V40.4445C656.954 45.5512 660.008 47.1738 665.21 47.1738H667.071V43.5467H665.306C662.06 43.5467 661.01 42.3058 661.01 39.8718V26.6519H667.071V23.1202H661.01ZM679.327 23.1202V15.866H675.27V23.1202H671.118V26.6519H675.27V40.4445C675.27 45.5512 678.325 47.1738 683.527 47.1738H685.388V43.5467H683.622C680.377 43.5467 679.327 42.3058 679.327 39.8718V26.6519H685.388V23.1202H679.327ZM705.804 23.1202H703.991C700.507 23.1202 698.216 24.5043 697.023 25.9837H695.973V23.1202H692.059V47.1738H696.116V35.147C696.116 29.8495 699.027 26.9382 703.8 26.9382H705.804V23.1202ZM715.417 16.8682V12.4774H711.122V16.8682H715.417ZM715.274 23.1202H711.217V47.1738H715.274V23.1202ZM735.696 22.4998C731.878 22.4998 729.635 23.9793 728.346 25.6974H727.296V12.4774H723.239V47.1738H727.153V44.5967H728.203C729.539 46.267 731.878 47.7943 735.696 47.7943C742.33 47.7943 746.243 42.2581 746.243 35.147C746.243 27.8928 742.33 22.4998 735.696 22.4998ZM734.789 44.2626C729.444 44.2626 727.248 39.8718 727.248 35.147C727.248 30.4222 729.444 26.0315 734.789 26.0315C739.609 26.0315 742.186 29.8018 742.186 35.147C742.186 40.4923 739.609 44.2626 734.789 44.2626ZM752.22 23.1202V38.3923C752.22 44.1671 755.465 47.7943 761.383 47.7943C764.629 47.7943 767.301 46.4579 768.637 44.5967H769.687V47.1738H773.601V23.1202H769.544V36.1493C769.544 40.4923 766.633 44.1671 762.385 44.1671C758.329 44.1671 756.277 41.9718 756.277 37.5333V23.1202H752.22ZM786.989 23.1202V15.866H782.932V23.1202H778.78V26.6519H782.932V40.4445C782.932 45.5512 785.986 47.1738 791.188 47.1738H793.05V43.5467H791.284C788.039 43.5467 786.989 42.3058 786.989 39.8718V26.6519H793.05V23.1202H786.989ZM820.204 33.7153C820.061 27.7973 816.625 22.4998 809.466 22.4998C802.164 22.4998 797.869 27.511 797.869 34.9084C797.869 42.3058 802.069 47.7943 809.562 47.7943C815.527 47.7943 819.011 44.6444 819.775 40.54H815.671C814.955 42.8308 812.95 44.2626 809.562 44.2626C804.598 44.2626 802.021 40.8263 801.878 35.0993H820.204V33.7153ZM809.371 26.0315C813.427 26.0315 815.766 28.6564 816.005 31.7108H802.116C802.641 28.6564 805.028 26.0315 809.371 26.0315ZM828.668 47.1738V48.0806L825.995 52.6623H828.572L831.245 48.0806V41.6377H826.282V47.1738H828.668ZM875.541 37.4856C874.443 41.4468 871.341 43.8808 866.568 43.8808C858.646 43.8808 855.162 37.3901 855.162 30.1359C855.162 22.9293 858.693 16.3909 866.616 16.3909C871.341 16.3909 873.87 18.3954 875.159 22.0225H879.693C878.309 16.1523 873.536 12.4774 866.616 12.4774C856.498 12.4774 850.819 20.0181 850.819 30.1359C850.819 40.2536 856.403 47.7943 866.568 47.7943C874.061 47.7943 878.69 43.5467 880.074 37.4856H875.541Z" fill="#274867"/>
<path d="M34.7924 626.307C34.6493 620.389 31.213 615.092 24.0542 615.092C16.7522 615.092 12.4569 620.103 12.4569 627.5C12.4569 634.898 16.6568 640.386 24.1497 640.386C30.1153 640.386 33.5993 637.236 34.3629 633.132H30.2585C29.5426 635.423 27.5382 636.854 24.1497 636.854C19.1862 636.854 16.609 633.418 16.4659 627.691H34.7924V626.307ZM23.9588 618.623C28.0154 618.623 30.354 621.248 30.5926 624.303H16.7045C17.2295 621.248 19.6157 618.623 23.9588 618.623ZM62.4892 639.766V624.493C62.4892 618.719 59.2439 615.092 53.3259 615.092C50.0806 615.092 47.408 616.428 46.0717 618.289H45.0217V615.712H41.1082V639.766H45.1649V626.737C45.1649 622.489 48.0284 618.719 52.3237 618.719C56.3804 618.719 58.4325 620.914 58.4325 625.353V639.766H62.4892ZM75.4951 615.712V608.458H71.4385V615.712H67.2864V619.244H71.4385V633.036C71.4385 638.143 74.4929 639.766 79.695 639.766H81.5563V636.138H79.7904C76.5451 636.138 75.4951 634.898 75.4951 632.464V619.244H81.5563V615.712H75.4951ZM92.523 609.46V605.069H88.2277V609.46H92.523ZM92.3799 615.712H88.3232V639.766H92.3799V615.712ZM105.929 615.712V608.458H101.873V615.712H97.7206V619.244H101.873V633.036C101.873 638.143 104.927 639.766 110.129 639.766H111.991V636.138H110.225C106.979 636.138 105.929 634.898 105.929 632.464V619.244H111.991V615.712H105.929ZM122.957 609.46V605.069H118.662V609.46H122.957ZM122.814 615.712H118.757V639.766H122.814V615.712ZM151.636 626.307C151.493 620.389 148.056 615.092 140.898 615.092C133.596 615.092 129.3 620.103 129.3 627.5C129.3 634.898 133.5 640.386 140.993 640.386C146.959 640.386 150.443 637.236 151.206 633.132H147.102C146.386 635.423 144.382 636.854 140.993 636.854C136.03 636.854 133.452 633.418 133.309 627.691H151.636V626.307ZM140.802 618.623C144.859 618.623 147.197 621.248 147.436 624.303H133.548C134.073 621.248 136.459 618.623 140.802 618.623ZM164.633 624.78C162.199 624.398 161.006 623.682 161.006 621.821C161.006 619.769 163.106 618.623 166.208 618.623C169.215 618.623 171.506 619.673 171.84 621.964H175.896C175.371 617.764 172.078 615.092 166.399 615.092C159.908 615.092 156.902 618.194 156.902 622.203C156.902 625.83 159.24 627.643 162.676 628.264L168.069 629.171C171.124 629.696 172.46 630.841 172.46 632.941C172.46 635.566 170.074 636.854 166.447 636.854C162.82 636.854 160.433 635.518 160.052 632.798H155.947C156.472 637.379 159.813 640.386 166.638 640.386C173.128 640.386 176.517 636.807 176.517 632.845C176.517 628.455 173.844 626.307 169.644 625.591L166.924 625.162L164.633 624.78ZM184.614 639.766V640.672L181.942 645.254H184.519L187.192 640.672V634.229H182.228V639.766H184.614ZM208.484 605.69V639.766H212.779V625.496H222.706C223.612 625.496 224.567 625.448 225.474 625.353L230.58 639.766H235.019L229.578 624.35C233.014 622.823 234.78 619.816 234.78 615.617C234.78 609.365 230.771 605.69 223.565 605.69H208.484ZM212.779 621.678V609.508H222.944C228.433 609.508 230.437 611.799 230.437 615.617C230.437 619.387 228.433 621.678 222.944 621.678H212.779Z" fill="#274867"/>
<path d="M1110.02 517.859H1113.84V501.49C1113.84 496.097 1109.97 493.185 1103.91 493.185C1098.52 493.185 1094.7 495.763 1094.36 500.201H1098.42C1098.61 498.101 1100.43 496.717 1104.01 496.717C1108.2 496.717 1109.88 498.817 1109.88 501.728V502.683H1102.05C1095.37 502.683 1092.84 506.787 1092.84 510.653C1092.84 514.757 1095.94 518.48 1101.48 518.48C1104.91 518.48 1107.49 517.191 1108.97 515.33H1110.02V517.859ZM1102.48 514.948C1098.9 514.948 1096.89 513.23 1096.89 510.51C1096.89 507.646 1098.71 505.928 1102.67 505.928H1109.88V508.123C1109.88 511.941 1106.49 514.948 1102.48 514.948ZM1126.85 493.806V486.551H1122.79V493.806H1118.64V497.337H1122.79V511.13C1122.79 516.237 1125.85 517.859 1131.05 517.859H1132.91V514.232H1131.14C1127.9 514.232 1126.85 512.991 1126.85 510.557V497.337H1132.91V493.806H1126.85ZM1145.16 493.806V486.551H1141.11V493.806H1136.96V497.337H1141.11V511.13C1141.11 516.237 1144.16 517.859 1149.36 517.859H1151.23V514.232H1149.46C1146.21 514.232 1145.16 512.991 1145.16 510.557V497.337H1151.23V493.806H1145.16ZM1171.64 493.806H1169.83C1166.34 493.806 1164.05 495.19 1162.86 496.669H1161.81V493.806H1157.9V517.859H1161.95V505.833C1161.95 500.535 1164.87 497.624 1169.64 497.624H1171.64V493.806ZM1181.25 487.554V483.163H1176.96V487.554H1181.25ZM1181.11 493.806H1177.06V517.859H1181.11V493.806ZM1201.53 493.185C1197.72 493.185 1195.47 494.665 1194.18 496.383H1193.13V483.163H1189.08V517.859H1192.99V515.282H1194.04C1195.38 516.953 1197.72 518.48 1201.53 518.48C1208.17 518.48 1212.08 512.944 1212.08 505.833C1212.08 498.578 1208.17 493.185 1201.53 493.185ZM1200.63 514.948C1195.28 514.948 1193.09 510.557 1193.09 505.833C1193.09 501.108 1195.28 496.717 1200.63 496.717C1205.45 496.717 1208.02 500.487 1208.02 505.833C1208.02 511.178 1205.45 514.948 1200.63 514.948ZM1218.06 493.806V509.078C1218.06 514.853 1221.3 518.48 1227.22 518.48C1230.47 518.48 1233.14 517.143 1234.48 515.282H1235.53V517.859H1239.44V493.806H1235.38V506.835C1235.38 511.178 1232.47 514.853 1228.22 514.853C1224.17 514.853 1222.11 512.657 1222.11 508.219V493.806H1218.06ZM1252.83 493.806V486.551H1248.77V493.806H1244.62V497.337H1248.77V511.13C1248.77 516.237 1251.82 517.859 1257.03 517.859H1258.89V514.232H1257.12C1253.88 514.232 1252.83 512.991 1252.83 510.557V497.337H1258.89V493.806H1252.83ZM1286.04 504.401C1285.9 498.483 1282.46 493.185 1275.3 493.185C1268 493.185 1263.71 498.196 1263.71 505.594C1263.71 512.991 1267.91 518.48 1275.4 518.48C1281.37 518.48 1284.85 515.33 1285.61 511.226H1281.51C1280.79 513.516 1278.79 514.948 1275.4 514.948C1270.44 514.948 1267.86 511.512 1267.72 505.785H1286.04V504.401ZM1275.21 496.717C1279.27 496.717 1281.6 499.342 1281.84 502.396H1267.95C1268.48 499.342 1270.87 496.717 1275.21 496.717ZM1329.07 508.171C1327.98 512.132 1324.87 514.566 1320.1 514.566C1312.18 514.566 1308.7 508.076 1308.7 500.821C1308.7 493.615 1312.23 487.076 1320.15 487.076C1324.87 487.076 1327.4 489.081 1328.69 492.708H1333.23C1331.84 486.838 1327.07 483.163 1320.15 483.163C1310.03 483.163 1304.35 490.704 1304.35 500.821C1304.35 510.939 1309.94 518.48 1320.1 518.48C1327.59 518.48 1332.22 514.232 1333.61 508.171H1329.07ZM1365.3 497.337V493.806H1358.76V491.181C1358.76 488.699 1359.81 486.695 1363.01 486.695H1365.3V483.163H1362.96C1357.76 483.163 1354.71 485.549 1354.71 491.038V493.806H1350.56V497.337H1354.71V517.859H1358.76V497.337H1365.3ZM1380.45 493.185C1372.91 493.185 1368.62 498.721 1368.62 505.833C1368.62 512.944 1372.91 518.48 1380.45 518.48C1387.95 518.48 1392.29 512.944 1392.29 505.833C1392.29 498.721 1387.95 493.185 1380.45 493.185ZM1380.45 514.948C1375.11 514.948 1372.68 510.557 1372.68 505.833C1372.68 501.108 1375.11 496.717 1380.45 496.717C1385.75 496.717 1388.23 501.108 1388.23 505.833C1388.23 510.557 1385.75 514.948 1380.45 514.948ZM1412.37 493.806H1410.55C1407.07 493.806 1404.78 495.19 1403.59 496.669H1402.54V493.806H1398.62V517.859H1402.68V505.833C1402.68 500.535 1405.59 497.624 1410.36 497.624H1412.37V493.806ZM1431.4 483.783V517.859H1435.69V503.589H1445.62C1446.53 503.589 1447.48 503.542 1448.39 503.446L1453.49 517.859H1457.93L1452.49 502.444C1455.93 500.917 1457.69 497.91 1457.69 493.71C1457.69 487.458 1453.68 483.783 1446.48 483.783H1431.4ZM1435.69 499.771V487.601H1445.86C1451.35 487.601 1453.35 489.892 1453.35 493.71C1453.35 497.481 1451.35 499.771 1445.86 499.771H1435.69Z" fill="#274867"/>
<path d="M599.849 156.237H580.956V158.936H588.918V180.326H591.954V158.936H599.849V156.237ZM610.913 180.326H613.612V168.754C613.612 164.942 610.879 162.884 606.594 162.884C602.782 162.884 600.083 164.705 599.846 167.843H602.714C602.849 166.359 604.131 165.38 606.662 165.38C609.63 165.38 610.811 166.865 610.811 168.923V169.597H605.278C600.555 169.597 598.767 172.499 598.767 175.232C598.767 178.133 600.96 180.765 604.873 180.765C607.303 180.765 609.124 179.854 610.17 178.538H610.913V180.326ZM605.582 178.268C603.052 178.268 601.635 177.054 601.635 175.131C601.635 173.106 602.917 171.892 605.717 171.892H610.811V173.444C610.811 176.143 608.416 178.268 605.582 178.268ZM627.668 162.884C624.969 162.884 623.383 163.929 622.473 165.144H621.73V155.799H618.863V180.326H621.629V178.504H622.371C623.316 179.685 624.969 180.765 627.668 180.765C632.358 180.765 635.124 176.851 635.124 171.824C635.124 166.696 632.358 162.884 627.668 162.884ZM627.027 178.268C623.249 178.268 621.697 175.164 621.697 171.824C621.697 168.484 623.249 165.38 627.027 165.38C630.435 165.38 632.257 168.046 632.257 171.824C632.257 175.603 630.435 178.268 627.027 178.268ZM639.619 155.799V180.326H642.487V155.799H639.619ZM662.764 170.812C662.663 166.629 660.234 162.884 655.173 162.884C650.012 162.884 646.975 166.426 646.975 171.655C646.975 176.885 649.944 180.765 655.241 180.765C659.458 180.765 661.921 178.538 662.461 175.637H659.559C659.053 177.256 657.636 178.268 655.241 178.268C651.732 178.268 649.91 175.839 649.809 171.79H662.764V170.812ZM655.106 165.38C657.974 165.38 659.627 167.236 659.796 169.395H649.978C650.349 167.236 652.036 165.38 655.106 165.38ZM678.272 160.117V159.476L680.162 156.237H678.34L676.451 159.476V164.031H679.959V160.117H678.272ZM684.177 160.117V159.476L686.066 156.237H684.244L682.355 159.476V164.031H685.863V160.117H684.177ZM702.127 175.198C701.688 177.087 700.271 178.268 697.842 178.268C694.029 178.268 692.444 175.164 692.444 171.757C692.444 168.383 693.996 165.38 697.842 165.38C700.17 165.38 701.485 166.527 702.025 168.248H704.893C704.319 165.11 701.89 162.884 697.842 162.884C692.545 162.884 689.576 166.696 689.576 171.824C689.576 176.851 692.545 180.765 697.842 180.765C701.789 180.765 704.353 178.538 704.994 175.198H702.127ZM724.014 170.812C723.912 166.629 721.483 162.884 716.422 162.884C711.261 162.884 708.224 166.426 708.224 171.655C708.224 176.885 711.193 180.765 716.49 180.765C720.707 180.765 723.17 178.538 723.71 175.637H720.808C720.302 177.256 718.885 178.268 716.49 178.268C712.981 178.268 711.159 175.839 711.058 171.79H724.014V170.812ZM716.355 165.38C719.223 165.38 720.876 167.236 721.045 169.395H711.227C711.598 167.236 713.285 165.38 716.355 165.38ZM743.593 180.326V169.53C743.593 165.448 741.299 162.884 737.115 162.884C734.821 162.884 732.932 163.828 731.987 165.144H731.245V163.322H728.478V180.326H731.346V171.116C731.346 168.113 733.37 165.448 736.407 165.448C739.274 165.448 740.725 167 740.725 170.137V180.326H743.593ZM753.563 169.732C751.842 169.463 750.999 168.956 750.999 167.641C750.999 166.19 752.483 165.38 754.676 165.38C756.802 165.38 758.421 166.122 758.658 167.742H761.525C761.154 164.773 758.826 162.884 754.811 162.884C750.223 162.884 748.098 165.077 748.098 167.911C748.098 170.475 749.751 171.757 752.18 172.195L755.992 172.836C758.151 173.207 759.096 174.017 759.096 175.502C759.096 177.357 757.409 178.268 754.845 178.268C752.281 178.268 750.594 177.323 750.324 175.4H747.423C747.794 178.639 750.156 180.765 754.98 180.765C759.568 180.765 761.964 178.234 761.964 175.434C761.964 172.33 760.075 170.812 757.106 170.306L755.183 170.002L753.563 169.732ZM765.9 163.322V174.118C765.9 178.201 768.194 180.765 772.378 180.765C774.672 180.765 776.561 179.82 777.506 178.504H778.248V180.326H781.015V163.322H778.147V172.533C778.147 175.603 776.089 178.201 773.086 178.201C770.219 178.201 768.768 176.649 768.768 173.511V163.322H765.9ZM791.255 169.732C789.534 169.463 788.691 168.956 788.691 167.641C788.691 166.19 790.175 165.38 792.368 165.38C794.494 165.38 796.113 166.122 796.349 167.742H799.217C798.846 164.773 796.518 162.884 792.503 162.884C787.915 162.884 785.789 165.077 785.789 167.911C785.789 170.475 787.442 171.757 789.872 172.195L793.684 172.836C795.843 173.207 796.788 174.017 796.788 175.502C796.788 177.357 795.101 178.268 792.537 178.268C789.973 178.268 788.286 177.323 788.016 175.4H785.114C785.486 178.639 787.847 180.765 792.672 180.765C797.26 180.765 799.656 178.234 799.656 175.434C799.656 172.33 797.766 170.812 794.797 170.306L792.874 170.002L791.255 169.732ZM805.38 160.151V160.792L803.491 164.031H805.313L807.202 160.792V156.237H803.693V160.151H805.38ZM811.284 160.151V160.792L809.395 164.031H811.217L813.106 160.792V156.237H809.597V160.151H811.284Z" fill="#274867"/>
<path d="M960.288 368.133H963.257V347.485H963.999L970.174 358.922H973.345L979.519 347.485H980.261V368.133H983.23V344.044H978.136L972.164 355.346H971.422L965.349 344.044H960.288V368.133Z" fill="#274867"/>
<path d="M960.288 546.947H963.257V526.3H963.999L970.174 537.737H973.345L979.519 526.3H980.261V546.947H983.23V522.858H978.136L972.164 534.161H971.422L965.349 522.858H960.288V546.947Z" fill="#274867"/>
<path d="M960.288 636.352H963.257V615.704H963.999L970.174 627.141H973.345L979.519 615.704H980.261V636.352H983.23V612.263H978.136L972.164 623.565H971.422L965.349 612.263H960.288V636.352Z" fill="#274867"/>
<path d="M981.259 436.217V433.45H964.424V457.539H967.46V446.81H978.627V444.044H967.46V436.217H981.259Z" fill="#274867"/>
<path d="M981.259 794.965V792.198H964.424V816.287H967.46V805.558H978.627V802.792H967.46V794.965H981.259Z" fill="#274867"/>
<path d="M626.999 612.263H608.105V614.962H616.067V636.352H619.104V614.962H626.999V612.263ZM638.062 636.352H640.761V624.779C640.761 620.967 638.029 618.909 633.744 618.909C629.931 618.909 627.232 620.731 626.996 623.868H629.864C629.999 622.384 631.281 621.406 633.811 621.406C636.78 621.406 637.961 622.89 637.961 624.948V625.623H632.428C627.705 625.623 625.917 628.524 625.917 631.257C625.917 634.159 628.11 636.79 632.023 636.79C634.452 636.79 636.274 635.879 637.32 634.563H638.062V636.352ZM632.732 634.294C630.201 634.294 628.784 633.079 628.784 631.156C628.784 629.132 630.066 627.917 632.867 627.917H637.961V629.469C637.961 632.168 635.566 634.294 632.732 634.294ZM650.601 643.099L660.79 619.348H657.787L653.064 630.549H652.22L647.025 619.348H643.954L651.208 634.766L647.699 643.099H650.601ZM664.166 611.824V636.352H667.034V611.824H664.166ZM679.889 618.909C674.558 618.909 671.522 622.823 671.522 627.85C671.522 632.877 674.558 636.79 679.889 636.79C685.186 636.79 688.256 632.877 688.256 627.85C688.256 622.823 685.186 618.909 679.889 618.909ZM679.889 634.294C676.11 634.294 674.39 631.19 674.39 627.85C674.39 624.51 676.11 621.406 679.889 621.406C683.634 621.406 685.388 624.51 685.388 627.85C685.388 631.19 683.634 634.294 679.889 634.294ZM702.448 619.348H701.166C698.703 619.348 697.084 620.326 696.24 621.372H695.498V619.348H692.732V636.352H695.599V627.85C695.599 624.105 697.657 622.047 701.031 622.047H702.448V619.348Z" fill="#274867"/>
<path d="M627.088 531.057L622.702 543.54H621.959L619.395 522.858H616.426L619.463 546.947H624.321L628.842 534.059H629.584L634.071 546.947H638.93L641.966 522.858H639.031L636.467 543.54H635.724L631.339 531.057H627.088ZM649.759 525.524V522.42H646.722V525.524H649.759ZM649.657 529.943H646.79V546.947H649.657V529.943ZM655.289 522.42V546.947H658.156V522.42H655.289ZM663.69 522.42V546.947H666.558V522.42H663.69ZM675.128 525.524V522.42H672.092V525.524H675.128ZM675.027 529.943H672.159V546.947H675.027V529.943ZM695.402 537.433C695.3 533.25 692.871 529.505 687.81 529.505C682.649 529.505 679.612 533.047 679.612 538.277C679.612 543.506 682.581 547.386 687.878 547.386C692.095 547.386 694.558 545.159 695.098 542.258H692.196C691.69 543.877 690.273 544.889 687.878 544.889C684.369 544.889 682.547 542.46 682.446 538.412H695.402V537.433ZM687.743 532.001C690.611 532.001 692.264 533.857 692.433 536.016H682.615C682.986 533.857 684.673 532.001 687.743 532.001Z" fill="#274867"/>
<path d="M619.679 454.166H622.716V445.833L628.519 440.266H629.261L636.481 454.166H639.72L631.251 437.634L638.809 430.077H635.098L622.716 442.02V430.077H619.679V454.166ZM657.677 444.652C657.575 440.468 655.146 436.723 650.085 436.723C644.924 436.723 641.887 440.266 641.887 445.495C641.887 450.725 644.856 454.605 650.153 454.605C654.37 454.605 656.833 452.378 657.373 449.476H654.471C653.965 451.096 652.548 452.108 650.153 452.108C646.644 452.108 644.822 449.679 644.721 445.63H657.677V444.652ZM650.018 439.22C652.886 439.22 654.539 441.076 654.708 443.235H644.89C645.261 441.076 646.948 439.22 650.018 439.22ZM662.141 429.638V454.166H665.009V429.638H662.141ZM670.543 429.638V454.166H673.411V429.638H670.543ZM683.533 460.914L693.722 437.162H690.719L685.996 448.363H685.152L679.957 437.162H676.886L684.14 452.58L680.631 460.914H683.533Z" fill="#274867"/>
<path d="M301.783 440.434C302.087 437.465 303.942 436.082 306.607 436.082C309.475 436.082 311.365 437.667 311.365 440.636C311.365 443.437 309.307 445.36 307.687 446.81C306.439 447.957 304.212 449.847 302.323 451.365L298.848 454.199V457.539H315.076V454.907H303.166V454.165L309.104 449.172C311.904 446.844 314.333 443.841 314.333 440.636C314.333 435.913 311.095 433.45 306.675 433.45C302.491 433.45 299.084 435.711 298.814 440.434H301.783Z" fill="#274867"/>
<path d="M299.905 523.331V525.895H310.229V526.637L304.46 531.63V534.768C305 534.633 305.675 534.565 306.518 534.565C309.993 534.565 311.849 536.488 311.849 539.592C311.849 542.831 309.723 544.754 306.484 544.754C303.65 544.754 301.457 543.034 301.187 540.335H298.218C298.488 544.349 301.693 547.386 306.484 547.386C311.309 547.386 314.818 544.484 314.818 539.592C314.818 535.038 311.849 532.507 307.8 532.406V531.698L313.704 526.637V523.331H299.905Z" fill="#274867"/>
<path d="M312.406 628.187V612.735H308.256L297.831 627.445V630.819H309.504V636.352H312.406V630.819H315.644V628.187H312.406ZM300.935 628.187V627.445L308.796 616.075H309.538V628.187H300.935Z" fill="#274867"/>
<path d="M299.902 725.756V721.842H296.394V725.756H299.902ZM308.601 725.756V721.842H305.092V725.756H308.601ZM317.299 725.756V721.842H313.79V725.756H317.299Z" fill="#274867"/>
<path d="M448.912 725.756V721.842H445.403V725.756H448.912ZM457.61 725.756V721.842H454.102V725.756H457.61ZM466.308 725.756V721.842H462.8V725.756H466.308Z" fill="#274867"/>
<path d="M804.287 367.01V363.096H800.778V367.01H804.287ZM812.985 367.01V363.096H809.477V367.01H812.985ZM821.683 367.01V363.096H818.175V367.01H821.683Z" fill="#274867"/>
<path d="M804.287 454.166V450.252H800.778V454.166H804.287ZM812.985 454.166V450.252H809.477V454.166H812.985ZM821.683 454.166V450.252H818.175V454.166H821.683Z" fill="#274867"/>
<path d="M804.287 546.947V543.034H800.778V546.947H804.287ZM812.985 546.947V543.034H809.477V546.947H812.985ZM821.683 546.947V543.034H818.175V546.947H821.683Z" fill="#274867"/>
<path d="M804.287 636.352V632.438H800.778V636.352H804.287ZM812.985 636.352V632.438H809.477V636.352H812.985ZM821.683 636.352V632.438H818.175V636.352H821.683Z" fill="#274867"/>
<path d="M804.287 725.756V721.842H800.778V725.756H804.287ZM812.985 725.756V721.842H809.477V725.756H812.985ZM821.683 725.756V721.842H818.175V725.756H821.683Z" fill="#274867"/>
<path d="M966.229 725.756V721.842H962.72V725.756H966.229ZM974.927 725.756V721.842H971.418V725.756H974.927ZM983.625 725.756V721.842H980.116V725.756H983.625Z" fill="#274867"/>
<path d="M804.287 816.287V812.373H800.778V816.287H804.287ZM812.985 816.287V812.373H809.477V816.287H812.985ZM821.683 816.287V812.373H818.175V816.287H821.683Z" fill="#274867"/>
<path d="M648.527 725.756V721.842H645.019V725.756H648.527ZM657.226 725.756V721.842H653.717V725.756H657.226ZM665.924 725.756V721.842H662.415V725.756H665.924Z" fill="#274867"/>
<path d="M314.013 792.198V812.34H313.271L302.07 792.198H297.279V816.287H300.248V796.145H300.99L312.191 816.287H316.982V792.198H314.013Z" fill="#274867"/>
<path d="M428.845 278.164L439.034 254.412H436.031L431.308 265.613H430.464L425.269 254.412H422.199L429.452 269.83L425.943 278.164H428.845ZM456.825 261.902C456.723 257.718 454.294 253.973 449.234 253.973C444.072 253.973 441.035 257.516 441.035 262.745C441.035 267.975 444.004 271.855 449.301 271.855C453.518 271.855 455.981 269.628 456.521 266.726H453.619C453.113 268.346 451.696 269.358 449.301 269.358C445.792 269.358 443.97 266.929 443.869 262.88H456.825V261.902ZM449.166 256.47C452.034 256.47 453.687 258.326 453.856 260.485H444.038C444.409 258.326 446.096 256.47 449.166 256.47ZM472.119 271.416H474.818V259.844C474.818 256.031 472.086 253.973 467.801 253.973C463.988 253.973 461.289 255.795 461.053 258.933H463.921C464.056 257.448 465.338 256.47 467.868 256.47C470.837 256.47 472.018 257.955 472.018 260.013V260.687H466.485C461.762 260.687 459.974 263.589 459.974 266.322C459.974 269.223 462.167 271.855 466.08 271.855C468.509 271.855 470.331 270.944 471.377 269.628H472.119V271.416ZM466.789 269.358C464.258 269.358 462.841 268.143 462.841 266.22C462.841 264.196 464.123 262.982 466.924 262.982H472.018V264.533C472.018 267.232 469.623 269.358 466.789 269.358ZM489.786 254.412H488.504C486.041 254.412 484.422 255.39 483.578 256.436H482.836V254.412H480.069V271.416H482.937V262.914C482.937 259.169 484.995 257.111 488.369 257.111H489.786V254.412Z" fill="white"/>
<path d="M629.829 271.416V260.62C629.829 256.538 627.534 253.973 623.351 253.973C621.057 253.973 619.167 254.918 618.223 256.234H617.481V254.412H614.714V271.416H617.582V262.206C617.582 259.203 619.606 256.538 622.642 256.538C625.51 256.538 626.961 258.089 626.961 261.227V271.416H629.829ZM645.905 271.416H648.604V259.844C648.604 256.031 645.872 253.973 641.587 253.973C637.774 253.973 635.075 255.795 634.839 258.933H637.707C637.842 257.448 639.124 256.47 641.654 256.47C644.623 256.47 645.804 257.955 645.804 260.013V260.687H640.271C635.548 260.687 633.76 263.589 633.76 266.322C633.76 269.223 635.953 271.855 639.866 271.855C642.295 271.855 644.117 270.944 645.163 269.628H645.905V271.416ZM640.575 269.358C638.044 269.358 636.627 268.143 636.627 266.22C636.627 264.196 637.909 262.982 640.71 262.982H645.804V264.533C645.804 267.232 643.409 269.358 640.575 269.358ZM671.703 253.973C669.577 253.973 667.958 254.716 666.912 256.234H666.17C665.259 254.716 663.741 253.973 661.683 253.973C659.523 253.973 658.208 254.749 657.364 256.065H656.622V254.412H653.855V271.416H656.723V262.003C656.723 258.933 658.073 256.538 660.907 256.538C663.032 256.538 664.146 257.988 664.146 260.789V271.416H667.013V261.463C667.013 258.596 668.498 256.538 671.163 256.538C673.356 256.538 674.436 257.921 674.436 260.721V271.416H677.303V260.417C677.303 256.504 675.616 253.973 671.703 253.973ZM697.296 261.902C697.195 257.718 694.766 253.973 689.705 253.973C684.543 253.973 681.507 257.516 681.507 262.745C681.507 267.975 684.476 271.855 689.772 271.855C693.99 271.855 696.453 269.628 696.992 266.726H694.091C693.585 268.346 692.168 269.358 689.772 269.358C686.264 269.358 684.442 266.929 684.341 262.88H697.296V261.902ZM689.638 256.47C692.505 256.47 694.158 258.326 694.327 260.485H684.509C684.88 258.326 686.567 256.47 689.638 256.47Z" fill="white"/>
<path d="M930.379 254.412V256.234H929.636C928.725 255.053 927.106 253.973 924.441 253.973C919.751 253.973 916.883 257.685 916.883 262.678C916.883 267.637 919.751 271.349 924.441 271.349C927.005 271.349 928.624 270.269 929.535 269.088H930.277V270.438C930.277 273.845 928.692 275.971 925.183 275.971C922.619 275.971 920.864 275.228 920.358 273.204H917.524C918.03 276.578 920.864 278.4 925.217 278.4C930.176 278.4 933.145 275.33 933.145 270.573V254.412H930.379ZM924.98 268.852C921.64 268.852 919.751 266.355 919.751 262.678C919.751 258.933 921.64 256.47 924.98 256.47C928.624 256.47 930.345 259.405 930.345 262.678C930.345 265.917 928.624 268.852 924.98 268.852ZM953.43 261.902C953.328 257.718 950.899 253.973 945.838 253.973C940.677 253.973 937.64 257.516 937.64 262.745C937.64 267.975 940.609 271.855 945.906 271.855C950.123 271.855 952.586 269.628 953.126 266.726H950.224C949.718 268.346 948.301 269.358 945.906 269.358C942.397 269.358 940.575 266.929 940.474 262.88H953.43V261.902ZM945.771 256.47C948.639 256.47 950.292 258.326 950.461 260.485H940.643C941.014 258.326 942.701 256.47 945.771 256.47ZM973.009 271.416V260.62C973.009 256.538 970.715 253.973 966.531 253.973C964.237 253.973 962.348 254.918 961.403 256.234H960.661V254.412H957.894V271.416H960.762V262.206C960.762 259.203 962.786 256.538 965.823 256.538C968.69 256.538 970.141 258.089 970.141 261.227V271.416H973.009ZM990.604 246.888V256.234H989.862C988.917 255.019 987.365 253.973 984.666 253.973C979.976 253.973 977.21 257.786 977.21 262.914C977.21 267.941 979.976 271.855 984.666 271.855C987.365 271.855 989.018 270.775 989.963 269.594H990.705V271.416H993.472V246.888H990.604ZM985.307 269.358C981.899 269.358 980.078 266.693 980.078 262.914C980.078 259.135 981.899 256.47 985.307 256.47C989.086 256.47 990.638 259.574 990.638 262.914C990.638 266.254 989.086 269.358 985.307 269.358ZM1013.76 261.902C1013.65 257.718 1011.23 253.973 1006.16 253.973C1001 253.973 997.967 257.516 997.967 262.745C997.967 267.975 1000.94 271.855 1006.23 271.855C1010.45 271.855 1012.91 269.628 1013.45 266.726H1010.55C1010.04 268.346 1008.63 269.358 1006.23 269.358C1002.72 269.358 1000.9 266.929 1000.8 262.88H1013.76V261.902ZM1006.1 256.47C1008.97 256.47 1010.62 258.326 1010.79 260.485H1000.97C1001.34 258.326 1003.03 256.47 1006.1 256.47ZM1027.94 254.412H1026.66C1024.19 254.412 1022.57 255.39 1021.73 256.436H1020.99V254.412H1018.22V271.416H1021.09V262.914C1021.09 259.169 1023.15 257.111 1026.52 257.111H1027.94V254.412Z" fill="white"/>
<path d="M804.848 271.416V267.502H801.339V271.416H804.848ZM813.546 271.416V267.502H810.037V271.416H813.546ZM822.244 271.416V267.502H818.735V271.416H822.244Z" fill="white"/>
<path d="M517.095 82.8245L460.105 191.758" stroke="#274867" stroke-width="3.18169"/>
<path d="M463.342 185.929L456.729 182.458L455.333 201.178L469.854 189.346L463.342 185.929Z" fill="#274867" stroke="#274867" stroke-width="3.18169"/>
<path d="M103.838 355.44L226.777 355.283" stroke="#274867" stroke-width="3.18169"/>
<path d="M220.111 355.127L220.111 362.595L237.336 355.133L220.111 347.773L220.111 355.127Z" fill="#274867" stroke="#274867" stroke-width="3.18169"/>
<path d="M103.838 446.917L226.777 446.76" stroke="#274867" stroke-width="3.18169"/>
<path d="M220.111 446.604L220.111 454.072L237.336 446.61L220.111 439.25L220.111 446.604Z" fill="#274867" stroke="#274867" stroke-width="3.18169"/>
<path d="M103.838 800.88L226.777 800.723" stroke="#274867" stroke-width="3.18169"/>
<path d="M220.111 800.566L220.111 808.034L237.336 800.573L220.111 793.213L220.111 800.566Z" fill="#274867" stroke="#274867" stroke-width="3.18169"/>
<path d="M721.843 83.0393L664.854 191.973" stroke="#274867" stroke-width="3.18169"/>
<path d="M668.09 186.143L661.478 182.673L660.081 201.393L674.602 189.561L668.09 186.143Z" fill="#274867" stroke="#274867" stroke-width="3.18169"/>
<path d="M1024.11 83.0393L967.117 191.973" stroke="#274867" stroke-width="3.18169"/>
<path d="M970.354 186.143L963.741 182.673L962.344 201.393L976.865 189.561L970.354 186.143Z" fill="#274867" stroke="#274867" stroke-width="3.18169"/>
<path d="M1179.25 534.852L746.76 534.852" stroke="#274867" stroke-width="3.18169"/>
<path d="M753.426 535.008L753.426 527.54L736.201 535.002L753.426 542.361L753.426 535.008Z" fill="#274867" stroke="#274867" stroke-width="3.18169"/>
<path d="M731.425 533.903C731.425 538.215 729.456 542.444 725.647 546.426C721.83 550.417 716.232 554.083 709.192 557.196C695.115 563.42 675.558 567.311 653.871 567.311C632.184 567.311 612.627 563.42 598.551 557.196C591.511 554.083 585.912 550.417 582.096 546.426C578.287 542.444 576.317 538.215 576.317 533.903C576.317 529.591 578.287 525.362 582.096 521.379C585.912 517.389 591.511 513.723 598.551 510.61C612.627 504.385 632.184 500.495 653.871 500.495C675.558 500.495 695.115 504.385 709.192 510.61C716.232 513.723 721.83 517.389 725.647 521.379C729.456 525.362 731.425 529.591 731.425 533.903Z" stroke="#274867" stroke-width="3.18169"/>
</g>
<defs>
<clipPath id="clip0_1213_93">
<rect width="1474" height="852" fill="white"/>
</clipPath>
</defs>
</svg>
